<?xml version="1.0" encoding="UTF-8" standalone="no"?>
<svg width="1340px" height="771px" viewBox="0 0 1340 771" version="1.1" xmlns="http://www.w3.org/2000/svg" xmlns:xlink="http://www.w3.org/1999/xlink" xmlns:sketch="http://www.bohemiancoding.com/sketch/ns">
    <!-- Generator: Sketch 3.3.2 (12043) - http://www.bohemiancoding.com/sketch -->
    <title>Artboard 1</title>
    <desc>Created with Sketch.</desc>
    <defs></defs>
    <g id="Page-1" stroke="none" stroke-width="1" fill="none" fill-rule="evenodd" sketch:type="MSPage">
        <g id="Artboard-1" sketch:type="MSArtboardGroup" transform="translate(-162.000000, -57.000000)" fill="#FFFFFF" opacity="0.04">
            <path d="M707.43642,561.854413 C721.311099,530.65968 740.868122,501.331498 766.553541,476.858891 C736.290876,495.306949 709.584326,520.830705 687.957589,550.42551 C666.241584,580.02666 649.378958,613.39757 636.410961,648.109363 C636.302383,648.404969 636.201472,648.703512 636.092799,648.999591 C635.518288,645.693652 634.952013,642.384777 634.458629,639.058 C629.465149,605.633008 628.583646,571.174862 632.519739,536.637913 C635.822441,507.390808 642.664975,478.12978 652.835203,449.611603 C643.8033,470.396189 636.335704,491.818304 630.497356,513.638601 C620.979358,549.228025 615.72953,585.823704 614.301537,622.473559 C613.169366,651.378553 614.418824,680.319917 617.724461,708.983482 C618.611265,716.672651 619.615451,724.346761 620.798267,731.990087 C623.604745,750.056064 627.21974,767.98243 631.668623,785.662442 C633.897656,794.500222 636.330309,803.277763 638.994318,811.956611 C640.567241,817.048405 642.241074,822.182745 643.995466,827.200643 L671.828791,827.200643 L675.273487,827.200643 L682.029973,827.200643 C681.181792,821.655258 680.38416,816.084299 679.692362,810.478486 C677.644893,793.923501 676.241891,777.184958 675.510997,760.396595 C674.068899,726.81949 675.257016,692.98154 680.102727,659.557589 C684.961501,626.160632 693.508634,593.095558 707.43642,561.854413" id="Fill-1" sketch:type="MSShapeGroup"></path>
            <path d="M625.583558,511.988021 C634.04966,485.325694 644.906479,459.473939 658.016849,434.89222 C637.168431,463.700604 619.750606,495.732999 606.855027,530.132232 C593.797669,564.855107 585.351446,601.891874 581.618595,639.74878 C579.559956,660.510161 578.929973,681.500943 579.55759,702.552152 C557.021329,685.199192 532.069644,671.703319 506.222067,662.78863 C479.856304,653.641226 452.711937,649.173984 426.063795,648.364832 C451.45377,656.568967 475.262208,668.137481 496.05468,682.897897 C516.880851,697.624595 534.610592,715.463539 548.853605,735.233252 C563.108263,755.014994 573.970288,776.687914 581.738817,799.135132 C584.918836,808.319759 587.554825,817.644564 589.691656,826.989071 L598.182843,826.989071 L599.415831,826.989071 L623.22957,826.989071 C622.297801,823.656526 621.393958,820.323963 620.518229,816.956648 C618.163673,807.815021 616.071807,798.63513 614.197194,789.420573 C611.820392,777.729308 609.840039,765.974868 608.166301,754.185573 C607.198275,747.393452 606.308537,740.593658 605.569407,733.779279 C605.228998,730.632177 604.949932,727.479866 604.659789,724.328881 C601.502395,690.146072 601.164448,655.737178 604.082439,621.622849 C607.253843,584.37553 614.311073,547.485193 625.583558,511.988021" id="Fill-3" sketch:type="MSShapeGroup"></path>
            <path d="M1104.79792,551.291756 C1095.54762,512.301636 1089.16163,472.827984 1085.77375,433.1073 C1084.06348,412.726292 1083.15963,392.276284 1083.36189,371.811527 C1083.60102,351.385748 1085.05741,330.977351 1087.23804,310.807032 C1089.43079,290.605637 1092.44048,270.533289 1096.28714,250.646347 C1098.6458,238.549107 1101.36527,226.526135 1104.47873,214.621676 C1049.00271,248.552098 1011.59698,309.139428 1010.13005,378.628372 C982.761016,366.00757 953.518953,362.072425 926.76144,367.273811 C918.439749,412.584604 934.02758,464.852876 972.060645,503.980998 C1009.72184,542.727772 1059.89955,558.79334 1103.64019,550.789263 C1103.27043,550.547497 1102.9249,550.258326 1102.61466,549.914376 C1103.34311,550.371045 1104.06314,550.844042 1104.79792,551.291756" id="Fill-1" sketch:type="MSShapeGroup" transform="translate(1014.689657, 383.706807) rotate(10.000000) translate(-1014.689657, -383.706807) "></path>
            <path d="M1290.7313,399.040898 C1259.46715,392.775005 1224.70292,399.748813 1193.84329,419.260729 C1193.82802,344.525627 1155.64589,279.295762 1098.87677,244.199703 C1098.47963,244.444629 1098.09301,244.70641 1097.69744,244.956077 C1097.3872,246.827523 1097.06432,248.696335 1096.77515,250.572521 C1095.04803,261.746416 1093.63746,272.967189 1092.50238,284.207451 C1090.45606,304.750163 1089.23406,325.359768 1088.80057,345.948305 C1088.35602,366.56265 1088.72261,387.054797 1090.04047,407.48637 C1091.36887,427.878438 1093.73965,448.201507 1096.86206,468.378146 C1103.15271,508.723523 1112.38932,548.535331 1124.29483,587.180975 C1135.45925,623.118737 1148.88646,658.115772 1165.85062,690.464973 L1190.54443,675.566622 C1172.88026,646.879724 1158.05934,616.455168 1145.84042,584.420948 C1181.01233,583.014598 1217.7486,566.58243 1246.81263,535.748611 C1283.68902,496.62049 1298.80543,444.352217 1290.7313,399.040898" id="Fill-3" sketch:type="MSShapeGroup" transform="translate(1190.733940, 467.332338) rotate(10.000000) translate(-1190.733940, -467.332338) "></path>
            <path d="M337.857258,133.023925 C338.123658,110.891199 339.741981,88.776166 342.165765,66.9202556 C344.604919,45.0295292 347.951427,23.2792085 352.228627,1.72979336 C354.849935,-11.3787302 357.874258,-24.4067774 361.33575,-37.305834 C298.404442,0.205878263 256.357073,67.7809537 256.357073,144.996647 C256.357073,222.3556 298.562688,290.039119 361.69095,327.508024 C351.406088,285.258477 344.305504,242.484977 340.539473,199.444364 C338.637104,177.35901 337.632411,155.200029 337.857258,133.023925" id="Fill-1" sketch:type="MSShapeGroup" transform="translate(309.024011, 145.101095) rotate(51.000000) translate(-309.024011, -145.101095) "></path>
            <path d="M329.014474,368.107229 C368.61415,328.402106 393.121243,273.579974 393.121243,212.988083 C393.121243,131.988856 349.332597,61.2877573 284.225689,23.2509507 C283.770304,23.5169224 283.327443,23.8005875 282.873766,24.0705545 C282.518566,26.0990167 282.148566,28.1240545 281.816135,30.156512 C279.83635,42.2645026 278.218027,54.4232903 276.917335,66.6037667 C274.570966,88.8637715 273.16952,111.196262 272.671443,133.505352 C272.161412,155.842979 272.582643,178.048191 274.09395,200.188337 C275.616643,222.285106 278.335289,244.307106 281.916889,266.169866 C289.129612,309.888536 299.719581,353.02846 313.372012,394.904734 C326.176289,433.846757 341.570566,471.769413 361.024597,506.822885 L389.337566,490.678517 C367.893504,457.765375 350.057227,422.767837 335.597627,385.794918 C333.307043,379.945823 331.134289,374.037941 329.014474,368.107229" id="Fill-3" sketch:type="MSShapeGroup" transform="translate(332.793169, 265.036918) rotate(51.000000) translate(-332.793169, -265.036918) "></path>
        </g>
    </g>
</svg>
