<?xml version="1.0" encoding="UTF-8" standalone="no"?>
<svg width="25px" height="44px" viewBox="0 0 25 44" version="1.1" xmlns="http://www.w3.org/2000/svg" xmlns:xlink="http://www.w3.org/1999/xlink" xmlns:sketch="http://www.bohemiancoding.com/sketch/ns">
    <!-- Generator: Sketch 3.3.2 (12043) - http://www.bohemiancoding.com/sketch -->
    <title>Slice 5</title>
    <desc>Created with Sketch.</desc>
    <defs></defs>
    <g id="Page-1" stroke="none" stroke-width="1" fill="none" fill-rule="evenodd" sketch:type="MSPage">
        <circle id="Oval-1-Copy-27" stroke="#D2D2D2" sketch:type="MSShapeGroup" cx="12" cy="20.5" r="39"></circle>
        <g id="1433417918_device_smart-phone_vertical_" sketch:type="MSLayerGroup">
            <g id="miu" sketch:type="MSShapeGroup">
                <g id="device_smart-phone_vertical_glyph">
                    <g id="path-1-link" fill="#8CBC45">
                        <path d="M3.84615387,0 C3.84615387,0 0,0 0,3.91907283 L0,39.1907281 C0,43.109801 3.84615387,43.109801 3.84615387,43.109801 L21.1538462,43.109801 C21.1538462,43.109801 25,43.109801 25,39.1907281 L25,3.91907283 C25,0 21.1538462,0 21.1538462,0 L3.84615387,0 L3.84615387,0 Z M1.92307692,4.89130435 L1.92307692,34 L23.0769231,34 L23.0769231,4.89130435 L1.92307692,4.89130435 L1.92307692,4.89130435 Z M12.5,40.4782548 C13.5620861,40.4782548 14.4230769,39.6022903 14.4230769,38.5217331 C14.4230769,37.441176 13.5620861,36.5652113 12.5,36.5652113 C11.4379139,36.5652113 10.5769231,37.441176 10.5769231,38.5217331 C10.5769231,39.6022903 11.4379139,40.4782548 12.5,40.4782548 L12.5,40.4782548 L12.5,40.4782548 Z M8.11787556,1.95652174 C7.88284088,1.95652174 7.69230771,2.14543092 7.69230771,2.38911437 L7.69230771,2.50369738 C7.69230771,2.74261167 7.88437863,2.93628995 8.11787556,2.93628995 L16.8821244,2.93628995 C17.1171591,2.93628995 17.3076923,2.74738077 17.3076923,2.50369738 L17.3076923,2.38911437 C17.3076923,2.15020006 17.1156214,1.95652174 16.8821244,1.95652174 L8.11787556,1.95652174 L8.11787556,1.95652174 Z" id="path-1"></path>
                    </g>
                    <path d="M3.84615387,0 C3.84615387,0 0,0 0,3.91907283 L0,39.1907281 C0,43.109801 3.84615387,43.109801 3.84615387,43.109801 L21.1538462,43.109801 C21.1538462,43.109801 25,43.109801 25,39.1907281 L25,3.91907283 C25,0 21.1538462,0 21.1538462,0 L3.84615387,0 L3.84615387,0 Z M12.5,41.4782548 C13.5620861,41.4782548 14.4230769,40.6022903 14.4230769,39.5217331 C14.4230769,38.441176 13.5620861,37.5652113 12.5,37.5652113 C11.4379139,37.5652113 10.5769231,38.441176 10.5769231,39.5217331 C10.5769231,40.6022903 11.4379139,41.4782548 12.5,41.4782548 L12.5,41.4782548 L12.5,41.4782548 Z M8.11787556,1.95652174 C7.88284088,1.95652174 7.69230771,2.14543092 7.69230771,2.38911437 L7.69230771,2.50369738 C7.69230771,2.74261167 7.88437863,2.93628995 8.11787556,2.93628995 L16.8821244,2.93628995 C17.1171591,2.93628995 17.3076923,2.74738077 17.3076923,2.50369738 L17.3076923,2.38911437 C17.3076923,2.15020006 17.1156214,1.95652174 16.8821244,1.95652174 L8.11787556,1.95652174 L8.11787556,1.95652174 Z" id="path-1"></path>
                </g>
            </g>
        </g>
    </g>
</svg>