<?xml version="1.0" encoding="UTF-8" standalone="no"?>
<svg width="81px" height="81px" viewBox="0 0 81 81" version="1.1" xmlns="http://www.w3.org/2000/svg" xmlns:xlink="http://www.w3.org/1999/xlink" xmlns:sketch="http://www.bohemiancoding.com/sketch/ns">
    <!-- Generator: Sketch 3.3.1 (12002) - http://www.bohemiancoding.com/sketch -->
    <title>icon-drought-links</title>
    <desc>Created with Sketch.</desc>
    <defs></defs>
    <g id="Page-1" stroke="none" stroke-width="1" fill="none" fill-rule="evenodd" sketch:type="MSPage">
        <g id="Artboard-2" sketch:type="MSArtboardGroup" transform="translate(-55.000000, -49.000000)">
            <circle id="Oval-1-Copy-2" stroke="#6CA0BD" stroke-width="2" sketch:type="MSShapeGroup" cx="95.5" cy="89.5" r="39.5"></circle>
            <path d="M96.5477886,110 C105.093855,110 112.021811,103.072044 112.021811,94.5259775 C112.021811,85.9799108 96.5477886,68.9520373 96.5477886,68.9520373 C96.5477886,68.9520373 81.073766,85.9799108 81.073766,94.5259775 C81.073766,103.072044 88.0017219,110 96.5477886,110 Z M89.4677182,101.252872 C88.3308294,99.9418237 87.8312551,98.1453888 87.6796754,97.4194314 C87.2480671,95.3523392 87.6796753,92.6042509 87.6796753,92.1960161 C87.6796753,90.9417644 88.2783882,88.7321022 88.2783882,88.7321022 C88.2783882,88.7321022 86.3948918,90.0745655 85.5300869,92.9200087 C84.665282,95.7654519 85.7569443,100.459888 88.2399305,102.275575 C90.7229167,104.091262 93.073766,104.091261 93.073766,104.091261 C93.073766,104.091261 90.9254978,102.933969 89.4677182,101.252872 Z" id="Oval-6" fill="#6CA0BD" sketch:type="MSShapeGroup"></path>
        </g>
    </g>
</svg>