<?xml version="1.0" encoding="UTF-8" standalone="no"?>
<svg width="109px" height="105px" viewBox="0 0 109 105" version="1.1" xmlns="http://www.w3.org/2000/svg" xmlns:xlink="http://www.w3.org/1999/xlink" xmlns:sketch="http://www.bohemiancoding.com/sketch/ns">
    <!-- Generator: Sketch 3.4.3 (16044) - http://www.bohemiancoding.com/sketch -->
    <title>noun_138064</title>
    <desc>Created with Sketch.</desc>
    <defs></defs>
    <g id="Page-1" stroke="none" stroke-width="1" fill="none" fill-rule="evenodd" sketch:type="MSPage">
        <g id="noun_138064" sketch:type="MSLayerGroup" fill="#8BC16A">
            <g id="Group" sketch:type="MSShapeGroup">
                <path d="M107.788889,94.137931 L87.2,94.137931 L87.2,0.00362068966 L24.2258556,0.00362068966 L24.2258556,94.137931 L1.21111111,94.137931 C0.542577778,94.137931 0,94.6774138 0,95.3448276 C0,96.0122414 0.542577778,96.5517241 1.21111111,96.5517241 L24.2258556,96.5517241 L29.0666667,96.5517241 L33.9111111,96.5517241 L33.9111111,103.793103 C33.9111111,104.151552 34.0709778,104.49069 34.3471111,104.721207 C34.5663222,104.902241 34.8412444,105 35.1222222,105 C35.1948889,105 35.2687667,104.992759 35.3414333,104.979483 L81.2546556,96.5517241 L82.3579778,96.5517241 L87.2,96.5517241 L107.788889,96.5517241 C108.458633,96.5517241 109,96.0122414 109,95.3448276 C109,94.6774138 108.458633,94.137931 107.788889,94.137931 L107.788889,94.137931 Z M31.4888889,94.137931 L31.4888889,7.24137931 L67.8839889,7.24137931 L34.9018,13.2963793 C34.3277333,13.4013793 33.9111111,13.9010345 33.9111111,14.4827586 L33.9111111,94.137931 L31.4888889,94.137931 L31.4888889,94.137931 Z M36.3333333,102.343621 L36.3333333,96.5517241 L36.3333333,94.137931 L36.3333333,15.4881034 L79.9333333,7.48517241 L79.9333333,94.137931 L79.9333333,94.3394828 L67.8827778,96.5517241 L36.3333333,102.343621 L36.3333333,102.343621 Z M82.3591889,94.137931 L82.3591889,4.82758621 L29.0666667,4.82758621 L29.0666667,94.137931 L26.6480778,94.137931 L26.6480778,2.41741379 L84.7777778,2.41741379 L84.7777778,94.137931 L82.3591889,94.137931 L82.3591889,94.137931 Z" id="Shape"></path>
                <path d="M43.5249111,53.4015517 C43.5006889,53.3303448 43.4679889,53.2627586 43.4316556,53.1963793 C43.3941111,53.13 43.3529333,53.0660345 43.3032778,53.0068966 C43.2512,52.9453448 43.1894333,52.8910345 43.1240333,52.8403448 C43.0877,52.8113793 43.0646889,52.7727586 43.0247222,52.7474138 L40.2040444,51.0167241 C39.6336111,50.6667241 38.8887778,50.8441379 38.5375556,51.4113793 C38.1863333,51.9786207 38.3643667,52.722069 38.9335889,53.072069 L41.1777778,54.4491379 L41.1777778,65.4246552 L40.2040444,64.8272414 C39.6336111,64.4784483 38.8887778,64.6546552 38.5375556,65.2218966 C38.1863333,65.7891379 38.3643667,66.5325862 38.9335889,66.8825862 L41.7542667,68.6144828 C41.7893889,68.6362069 41.8269333,68.6446552 41.8632667,68.6615517 C41.8996,68.6796552 41.9359333,68.6965517 41.9734778,68.7098276 C42.1091222,68.7593103 42.2471889,68.7931034 42.3876778,68.7931034 L42.3888889,68.7931034 L42.3888889,68.7931034 L42.3913111,68.7931034 C42.5390667,68.7931034 42.6759222,68.7581034 42.8067222,68.7098276 C42.837,68.6989655 42.8672778,68.6881034 42.8975556,68.6748276 C43.0223,68.6168966 43.1373556,68.5432759 43.2342444,68.4491379 C43.2475667,68.4358621 43.2584667,68.4177586 43.2717889,68.4032759 C43.3250778,68.3465517 43.3783667,68.2886207 43.4207556,68.2198276 C43.4365,68.1932759 43.4377111,68.1631034 43.4522444,68.1365517 C43.4897889,68.0641379 43.5140111,67.9881034 43.5358111,67.9108621 C43.5576111,67.8336207 43.5782,67.7563793 43.5842556,67.6743103 C43.5842556,67.642931 43.6,67.6175862 43.6,67.5862069 L43.6,53.7756897 C43.6,53.7286207 43.5782,53.6887931 43.5733556,53.6441379 C43.5636667,53.5596552 43.5503444,53.4787931 43.5249111,53.4015517 L43.5249111,53.4015517 Z" id="Shape"></path>
            </g>
        </g>
    </g>
</svg>