<?xml version="1.0" encoding="UTF-8" standalone="no"?>
<svg width="44px" height="41px" viewBox="0 0 44 41" version="1.1" xmlns="http://www.w3.org/2000/svg" xmlns:xlink="http://www.w3.org/1999/xlink" xmlns:sketch="http://www.bohemiancoding.com/sketch/ns">
    <!-- Generator: Sketch 3.3.3 (12072) - http://www.bohemiancoding.com/sketch -->
    <title>Shape</title>
    <desc>Created with Sketch.</desc>
    <defs></defs>
    <g id="Page-1" stroke="none" stroke-width="1" fill="none" fill-rule="evenodd" sketch:type="MSPage">
        <g id="Artboard-1-Copy-2" sketch:type="MSArtboardGroup" transform="translate(-220.000000, -1244.000000)" fill="#8CBC45">
            <g id="Shape" sketch:type="MSLayerGroup" transform="translate(220.000000, 1244.000000)">
                <path d="M22.9777778,18.2135501 C22.7822222,18.2135501 22.6355556,18.1687994 22.4888889,18.0792979 C21.8044444,18.0345471 20.8266667,17.9450457 19.7022222,17.8107935 C16.0844444,17.4080368 10.6577778,16.7815265 5.28,17.6317905 C4.74222222,17.721292 4.25333333,17.3632861 4.15555556,16.9157787 C4.05777778,16.4235206 4.44888889,15.9760132 4.93777778,15.8865117 C10.56,15.0362477 16.1822222,15.6627581 19.8977778,16.0655147 C21.2177778,16.1997669 22.2444444,16.3340191 22.8311111,16.3340191 C22.9777778,16.3340191 23.1244444,16.3787699 23.2711111,16.4235206 C24.3466667,16.2892684 25.1288889,15.4390044 25.1288889,14.4097374 C25.1288889,13.290969 24.1511111,12.3959542 22.9288889,12.3959542 C22.1466667,12.3959542 21.4622222,12.7539601 21.0711111,13.3357197 C20.7777778,13.7384764 20.1911111,13.8727286 19.7022222,13.6042241 C19.2622222,13.3357197 19.1155556,12.7987109 19.4088889,12.3512035 C20.1911111,11.2324351 21.5111111,10.561174 22.9288889,10.561174 C25.2266667,10.561174 27.0844444,12.261702 27.0844444,14.3649867 C27.0844444,16.4682713 25.2755556,18.2135501 22.9777778,18.2135501 Z M20.2888889,27.1636976 C19.1155556,27.1636976 18.04,27.7007064 17.4044444,28.6404719 C17.1111111,29.0432285 17.2577778,29.6249881 17.6977778,29.8934925 C18.1377778,30.161997 18.7733333,30.0277447 19.0666667,29.6249881 C19.36,29.2222315 19.8,28.9984778 20.2888889,28.9984778 C21.12,28.9984778 21.7555556,29.5802374 21.7555556,30.3409999 C21.7555556,31.1017624 21.12,31.683522 20.2888889,31.683522 L20.24,31.683522 L20.1911111,31.683522 C19.7022222,31.683522 18.8222222,31.5492698 17.7466667,31.3702669 C14.6177778,30.7885073 9.28888889,29.8934925 4.4,31.1912639 C3.86222222,31.3255161 3.56888889,31.8177742 3.71555556,32.3100323 C3.86222222,32.8022905 4.4,33.0707949 4.93777778,32.9365427 C9.38666667,31.7730235 14.2266667,32.5785368 17.4044444,33.1155456 C18.6266667,33.3392993 19.5555556,33.4735515 20.1911111,33.4735515 L20.24,33.4735515 L20.2888889,33.4735515 C22.1955556,33.4735515 23.7111111,32.0862787 23.7111111,30.3409999 C23.7111111,28.5957211 22.1955556,27.1636976 20.2888889,27.1636976 Z M37.1555556,14.2754852 C34.8577778,14.2754852 32.8044444,15.3495029 31.5822222,17.0947817 C31.2888889,17.4975383 31.4355556,18.0792979 31.8755556,18.3478023 C32.3155556,18.6163067 32.9511111,18.4820545 33.2444444,18.0792979 C34.1244444,16.8262772 35.5911111,16.1102654 37.1555556,16.1102654 C39.6977778,16.1102654 41.8,18.0345471 41.8,20.3615855 C41.8,22.6886238 39.6977778,24.6129055 37.1555556,24.6129055 L37.0577778,24.6129055 L36.96,24.6129055 C35.7866667,24.6129055 33.7333333,24.2548996 31.1422222,23.852143 C23.9555556,22.5991223 11.88,20.5853392 0.928888889,23.5388878 C0.391111111,23.67314 0.0977777778,24.1653982 0.244444444,24.6576563 C0.391111111,25.1499144 0.928888889,25.4184188 1.46666667,25.2841666 C11.9777778,22.4648701 23.2711111,24.3891518 30.8,25.6421725 C33.4888889,26.0896799 35.5911111,26.4476858 36.96,26.4476858 L37.0577778,26.4476858 L37.1555556,26.4476858 C40.8222222,26.4476858 43.7555556,23.7178908 43.7555556,20.4063362 C43.7555556,17.0947817 40.7733333,14.2754852 37.1555556,14.2754852 Z M37.7911111,9.53190705 C37.3511111,8.59214157 36.8133333,7.78662829 36.2755556,7.0706165 C36.96,6.04134954 36.8622222,4.60932594 36.0311111,3.22205309 C35.1022222,1.65577728 32.9511111,0 29.7244444,0 C27.1333333,0 24.4444444,1.0740177 21.6577778,3.17730235 C21.3155556,3.44580677 21.2177778,3.93806488 21.4133333,4.29607078 C21.6577778,4.65407668 22.1466667,4.83307963 22.5866667,4.69882742 C22.5866667,4.69882742 22.9777778,4.56457521 23.5644444,4.56457521 C24.7377778,4.56457521 26.4,5.01208258 27.6711111,7.20486871 C28.5022222,8.6368923 29.8711111,9.44240558 31.4844444,9.44240558 C32.7066667,9.44240558 33.9288889,8.9948982 34.8088889,8.41313862 C35.2,8.95014746 35.5422222,9.53190705 35.8844444,10.2479188 C36.0311111,10.6059247 36.4222222,10.7849277 36.7644444,10.7849277 C36.9111111,10.7849277 37.0088889,10.740177 37.1555556,10.6954262 C37.7911111,10.4716725 38.0355556,9.97941442 37.7911111,9.53190705 Z M31.5822222,7.65237608 C30.6533333,7.65237608 29.9688889,7.24961945 29.48,6.3546047 C28.2577778,4.25132005 26.6444444,3.3563053 25.3244444,2.9982994 C26.8888889,2.19278613 28.4044444,1.74527876 29.7733333,1.74527876 C32.12,1.74527876 33.6844444,2.95354866 34.3688889,4.0723171 C34.6622222,4.51982447 34.8088889,5.01208258 34.8088889,5.41483922 C33.0488889,3.89331415 31.4355556,3.49055751 31.3377778,3.44580677 C30.8,3.31155456 30.2622222,3.58005899 30.1155556,4.0723171 C29.9688889,4.56457521 30.2622222,5.05683332 30.8,5.19108553 C30.8,5.19108553 32.2177778,5.54909143 33.6844444,6.93636429 C33.0977778,7.33912092 32.3644444,7.65237608 31.5822222,7.65237608 Z M40.04,35.9795928 C39.8444444,35.6663376 39.4533333,35.442584 39.0622222,35.4873347 C38.4755556,35.5320854 37.7911111,35.442584 37.2044444,35.3530825 C38.8177778,31.9072757 36.7155556,28.9089763 36.6177778,28.7747241 C36.3733333,28.4614689 35.9333333,28.282466 35.4933333,28.4167182 C35.0533333,28.5509704 34.8088889,28.9089763 34.8088889,29.3117329 C34.8088889,29.982994 33.7822222,31.012261 32.7555556,31.8177742 C31.9244444,30.1172462 30.0177778,29.5354866 29.92,29.4907359 C29.5777778,29.4012344 29.1866667,29.4459852 28.9422222,29.6697388 C28.6977778,29.8934925 28.5511111,30.2514984 28.6488889,30.5647536 C28.9422222,31.5045191 28.3555556,32.3547831 27.7688889,33.2497978 C27.5244444,33.6078037 27.3288889,33.9658096 27.1333333,34.3238155 C26.5466667,35.5320854 26.6933333,36.8746076 27.5244444,38.1276282 C26.7422222,38.2618804 25.8133333,38.2171297 24.8355556,37.993376 C24.2977778,37.8591238 23.76,38.1276282 23.6133333,38.6198863 C23.4666667,39.1121444 23.76,39.6044025 24.2977778,39.7386547 C25.08,39.9624084 25.8622222,40.0519099 26.5466667,40.0519099 C27.3777778,40.0519099 28.2088889,39.9176577 28.8933333,39.693904 C29.8711111,40.4994173 30.9955556,40.9021739 32.2666667,40.9021739 C36.0311111,40.9021739 39.6977778,37.2326135 39.8444444,37.0983612 C40.1377778,36.7403553 40.1866667,36.3375987 40.04,35.9795928 Z M32.3155556,39.0226429 C31.8266667,39.0226429 31.3866667,38.9331415 30.9955556,38.7541385 C31.9244444,38.1723789 32.6577778,37.5458686 33.0977778,37.0088598 C33.3911111,36.6061031 33.2933333,36.0690943 32.8533333,35.7558391 C32.4133333,35.4873347 31.8266667,35.5768362 31.4844444,35.9795928 C31.4844444,35.9795928 30.7511111,36.8746076 29.48,37.5011179 C28.9911111,36.8746076 28.5511111,35.9795928 28.9911111,35.0398273 C29.1377778,34.7713229 29.2844444,34.5028185 29.5288889,34.1895633 C29.92,33.6078037 30.4088889,32.8470412 30.6044444,31.9967772 C30.9466667,32.3100323 31.1911111,32.8022905 31.24,33.38405 C31.24,33.6973052 31.4844444,33.9658096 31.7777778,34.1448126 C32.0711111,34.2790648 32.4622222,34.2790648 32.7555556,34.1000618 C33.1955556,33.8315574 34.76,32.8470412 35.7866667,31.6387713 C36.0311111,32.6680382 35.9822222,34.1000618 35.0044444,35.4873347 C34.8577778,35.7110884 34.8088889,36.0243435 34.9066667,36.2480972 C35.0044444,36.5166017 35.2488889,36.6956046 35.4933333,36.7851061 C35.5422222,36.7851061 36.1288889,36.964109 36.9111111,37.143112 C35.64,38.0381267 33.9288889,39.0226429 32.3155556,39.0226429 L32.3155556,39.0226429 Z" sketch:type="MSShapeGroup"></path>
            </g>
        </g>
    </g>
</svg>