<?xml version="1.0" encoding="UTF-8" standalone="no"?>
<svg width="142px" height="92px" viewBox="0 0 142 92" version="1.1" xmlns="http://www.w3.org/2000/svg" xmlns:xlink="http://www.w3.org/1999/xlink" xmlns:sketch="http://www.bohemiancoding.com/sketch/ns">
    <!-- Generator: Sketch 3.3.3 (12072) - http://www.bohemiancoding.com/sketch -->
    <title>Rectangle 9</title>
    <desc>Created with Sketch.</desc>
    <defs></defs>
    <g id="Page-1" stroke="none" stroke-width="1" fill="none" fill-rule="evenodd" sketch:type="MSPage">
        <path d="M0,69 L35.5,69 L35.5,92 L0,92 L0,69 Z M35.5,69 L71,69 L71,92 L35.5,92 L35.5,69 Z M71,69 L106.5,69 L106.5,92 L71,92 L71,69 Z M106.5,69 L142,69 L142,92 L106.5,92 L106.5,69 Z M35.5,46 L71,46 L71,69 L35.5,69 L35.5,46 Z M71,46 L106.5,46 L106.5,69 L71,69 L71,46 Z M106.5,46 L142,46 L142,69 L106.5,69 L106.5,46 Z M71,23 L106.5,23 L106.5,46 L71,46 L71,23 Z M106.5,23 L142,23 L142,46 L106.5,46 L106.5,23 Z M106.5,0 L142,0 L142,23 L106.5,23 L106.5,0 Z" id="Rectangle-9" fill="#87AFDE" sketch:type="MSShapeGroup"></path>
    </g>
</svg>