<?xml version="1.0" encoding="UTF-8" standalone="no"?>
<svg width="33px" height="33px" viewBox="0 0 33 33" version="1.1" xmlns="http://www.w3.org/2000/svg" xmlns:xlink="http://www.w3.org/1999/xlink" xmlns:sketch="http://www.bohemiancoding.com/sketch/ns">
    <!-- Generator: Sketch 3.3.2 (12043) - http://www.bohemiancoding.com/sketch -->
    <title>Slice 4</title>
    <desc>Created with Sketch.</desc>
    <defs></defs>
    <g id="Page-1" stroke="none" stroke-width="1" fill="none" fill-rule="evenodd" sketch:type="MSPage">
        <circle id="Oval-1-Copy-26" stroke="#D2D2D2" sketch:type="MSShapeGroup" cx="17.5" cy="13.4305" r="39"></circle>
        <g id="path-1-link-+-path-1" sketch:type="MSLayerGroup" transform="translate(-1.500000, -7.500000)">
            <g id="path-1-link" transform="translate(21.250000, 20.690789) rotate(45.000000) translate(-21.250000, -20.690789) translate(10.258621, 2.955827)" fill="#8CBC45" sketch:type="MSShapeGroup">
                <path d="M10.4463151,1.67286996 L2.66576033e-12,10.7867637 L2.66576033e-12,33.3518937 C2.66576033e-12,33.750913 0.327810707,34.0743821 0.731405728,34.0743821 L21.251353,34.0743821 C21.6552971,34.0743821 21.9827586,33.7451809 21.9827586,33.3518937 L21.9827586,10.7867637 L11.5364436,1.67286996 C11.235413,1.41023559 10.7411575,1.41563454 10.4463151,1.67286996 L10.4463151,1.67286996 Z M10.9913793,16.0109945 C12.6101451,16.0109945 13.9224138,14.7170339 13.9224138,13.1208524 C13.9224138,11.524671 12.6101451,10.2307104 10.9913793,10.2307104 C9.37261366,10.2307104 8.06034483,11.524671 8.06034483,13.1208524 C8.06034483,14.7170339 9.37261366,16.0109945 10.9913793,16.0109945 L10.9913793,16.0109945 L10.9913793,16.0109945 Z" id="path-1"></path>
            </g>
            <path d="M20.7049357,4.62869702 L10.2586207,13.7425907 L10.2586207,36.3077207 C10.2586207,36.7067401 10.5864314,37.0302091 10.9900264,37.0302091 L31.5099737,37.0302091 C31.9139178,37.0302091 32.2413793,36.701008 32.2413793,36.3077207 L32.2413793,13.7425907 L21.7950643,4.62869702 C21.4940337,4.36606265 20.9997782,4.37146161 20.7049357,4.62869702 L20.7049357,4.62869702 Z M21.25,18.9668215 C22.8687658,18.9668215 24.1810345,17.672861 24.1810345,16.0766795 C24.1810345,14.4804981 22.8687658,13.1865375 21.25,13.1865375 C19.6312344,13.1865375 18.3189655,14.4804981 18.3189655,16.0766795 C18.3189655,17.672861 19.6312344,18.9668215 21.25,18.9668215 L21.25,18.9668215 L21.25,18.9668215 Z" id="path-1" sketch:type="MSShapeGroup"></path>
        </g>
    </g>
</svg>