<?xml version="1.0" encoding="UTF-8" standalone="no"?>
<svg width="64px" height="65px" viewBox="0 0 64 65" version="1.1" xmlns="http://www.w3.org/2000/svg" xmlns:xlink="http://www.w3.org/1999/xlink" xmlns:sketch="http://www.bohemiancoding.com/sketch/ns">
    <!-- Generator: Sketch 3.3 (11970) - http://www.bohemiancoding.com/sketch -->
    <title>Oval 1 Copy 2 + Shape</title>
    <desc>Created with Sketch.</desc>
    <defs></defs>
    <g id="desktop" stroke="none" stroke-width="1" fill="none" fill-rule="evenodd" sketch:type="MSPage">
        <g id="Desktop@2x" sketch:type="MSArtboardGroup" transform="translate(-558.000000, -4169.000000)">
            <g id="Group-Copy-3" sketch:type="MSLayerGroup" transform="translate(89.000000, 3982.395000)">
                <g id="Oval-1-Copy-2-+-Shape" transform="translate(469.000000, 187.000000)" sketch:type="MSShapeGroup">
                    <circle id="Oval-1-Copy-2" fill="#FFFFFF" cx="32" cy="32" r="32"></circle>
                    <path d="M43.7957961,32.0395412 C44.3830389,32.0395412 44.9050324,32.4962856 44.9050324,33.0835283 C44.9050324,33.6707711 44.3830389,34.1927646 43.7957961,34.1927646 L27.4834977,34.1927646 C26.8962549,34.1927646 26.4395106,33.7360203 26.4395106,33.0835283 C26.4395106,32.4310364 26.8962549,32.0395412 27.4834977,32.0395412 L43.7957961,32.0395412 L43.7957961,32.0395412 Z M48.9504825,36.99848 L27.2225009,36.99848 L27.2225009,36.99848 L27.1572517,36.99848 C24.5472839,36.99848 22.0678146,38.2382147 20.5018339,40.3914381 C18.2833613,43.392901 19.0011024,47.6993478 22.0025654,49.8525712 C24.5472839,51.6795486 28.0707404,51.0923059 29.8977178,48.6128365 C31.4636985,46.5248623 30.9417049,43.5233994 28.8537307,42.0226679 C27.0920025,40.717684 24.5472839,41.1091792 23.2423001,42.9361566 C22.1330638,44.4368881 22.4593097,46.5901115 24.0252904,47.6993478 C24.6125331,48.0908429 25.2650251,48.2865905 25.9827662,48.2865905 C26.5700089,48.2213413 27.0267533,47.6993478 26.9615041,47.112105 C26.8962549,46.5248623 26.4395106,46.0681179 25.7870186,46.1333671 C25.6565202,46.1333671 25.4607726,46.1333671 25.2650251,46.0028687 C24.6777823,45.6113736 24.5472839,44.8283832 25.0040283,44.2411405 C25.591271,43.392901 26.7657565,43.2624026 27.613996,43.8496453 C28.7884815,44.6978849 29.0494783,46.3291147 28.2012388,47.438351 C27.0920025,49.0043317 24.8735299,49.3305776 23.3075492,48.2213413 C21.219575,46.7206099 20.7628307,43.7843961 22.2635621,41.7616711 C23.4380476,40.1956905 25.2650251,39.2822018 27.2225009,39.2822018 L27.2225009,39.2822018 L48.9504825,39.2822018 C49.5377252,39.2822018 49.9944696,38.8254574 49.9944696,38.1729655 C50.0597188,37.5204735 49.5377252,36.99848 48.9504825,36.99848 L48.9504825,36.99848 Z M37.1403784,29.1685767 C37.7276211,29.1685767 38.2496147,28.7118323 38.2496147,28.0593404 C38.2496147,27.4720977 37.7928703,26.9501041 37.1403784,26.9501041 L18.7401057,26.9501041 L18.7401057,26.9501041 L18.6748565,26.9501041 C16.7173807,26.9501041 14.8904032,26.0366154 13.7811669,24.4706347 C12.2804355,22.3826605 12.7371798,19.511696 14.825154,18.0109645 C15.6081444,17.488971 16.5216331,17.2279742 17.4351218,17.3584726 C18.3486105,17.488971 19.19685,18.0109645 19.7188436,18.7287057 C20.5670831,19.9031912 20.3060863,21.4691718 19.1316008,22.3174113 C18.2833613,22.9046541 17.174125,22.7089065 16.5216331,21.9259162 C16.1301379,21.3386734 16.2606363,20.5556831 16.7826299,20.1641879 L16.7826299,20.1641879 C16.847879,20.0989387 16.9783774,20.0336895 17.0436266,20.0336895 C17.6308694,19.9031912 17.9571153,19.3159484 17.826617,18.7287057 C17.6961186,18.2067121 17.2393742,17.8804661 16.7826299,17.8804661 L16.5216331,17.8804661 C16.1301379,17.9457153 15.7386427,18.1414629 15.4123968,18.4024597 L15.4123968,18.4024597 C13.9116653,19.511696 13.5854193,21.6649194 14.6294065,23.1656509 C15.9343903,24.9273791 18.4138597,25.3188743 20.2408371,24.0791396 C22.3288113,22.5131589 22.8508049,19.5769452 21.2848242,17.488971 C20.3713355,16.2492363 19.0663516,15.466246 17.5656202,15.2052492 C17.2393742,15.14 16.9783774,15.14 16.6521315,15.14 C15.477646,15.14 14.3031605,15.5314952 13.3244226,16.2492363 C10.3229597,18.4677089 9.60521852,22.7089065 11.8236911,25.7103694 C13.3896718,27.8635928 15.8691411,29.1033275 18.4791089,29.1033275 L18.5443581,29.1033275 L18.5443581,29.1033275 L37.1403784,29.1033275 L37.1403784,29.1685767 Z" id="Shape" fill="#5AA829" transform="translate(30.264478, 33.029837) rotate(-180.000000) translate(-30.264478, -33.029837) "></path>
                </g>
            </g>
        </g>
    </g>
</svg>