<?xml version="1.0" encoding="UTF-8" standalone="no"?>
<svg width="150px" height="150px" viewBox="0 0 150 150" version="1.1" xmlns="http://www.w3.org/2000/svg" xmlns:xlink="http://www.w3.org/1999/xlink" xmlns:sketch="http://www.bohemiancoding.com/sketch/ns">
    <!-- Generator: Sketch 3.3 (11970) - http://www.bohemiancoding.com/sketch -->
    <title>icon-hedging + Oval 15 Copy 2</title>
    <desc>Created with Sketch.</desc>
    <defs></defs>
    <g id="desktop" stroke="none" stroke-width="1" fill="none" fill-rule="evenodd" sketch:type="MSPage">
        <g id="Desktop@2x" sketch:type="MSArtboardGroup" transform="translate(-730.000000, -2796.000000)">
            <g id="icon-hedging-+-Oval-15-Copy-2" sketch:type="MSLayerGroup" transform="translate(730.000000, 2796.000000)">
                <circle id="Oval-15-Copy-2" fill="#F7F8F7" sketch:type="MSShapeGroup" cx="75" cy="75" r="75"></circle>
                <g id="icon-hedging" transform="translate(36.132075, 46.452830)" stroke-width="3" stroke="#8CBC45" sketch:type="MSShapeGroup">
                    <g id="Page-1">
                        <g id="Artboard-1-Copy-2">
                            <g id="Oval-1-Copy-8">
                                <path d="M32.7991407,54.4653754 L30.054921,47.6201294 C33.917538,47.1438993 37.3507894,45.2673596 39.8395752,42.5096345 C42.5615636,44.7285853 46.027245,46.0576074 49.8009299,46.0576074 C50.0345707,46.0576074 50.2670306,46.052513 50.4982068,46.0424282 L50.4982068,46.0424282 L43.9807991,54.4653754 L32.7991407,54.4653754 L32.7991407,54.4653754 Z M24.5409609,47.3325338 C20.0289119,46.2861098 16.2527307,43.2986328 14.1244029,39.2892134 C13.7844412,39.3171503 13.4406347,39.331393 13.0935274,39.331393 C6.18229833,39.331393 0.579640193,33.6849642 0.579640193,26.7197411 C0.579640193,19.754518 6.18229833,14.1080891 13.0935274,14.1080891 C14.7937246,14.1080891 16.4147291,14.4498024 17.8926112,15.0687999 C20.0536665,6.77408284 27.5442467,0.655660377 36.4527835,0.655660377 C41.5967143,0.655660377 46.2678856,2.69559828 49.7132586,6.01655247 C51.6631661,4.75223217 53.9840936,4.01876756 56.475003,4.01876756 C61.9735372,4.01876756 66.643785,7.592789 68.3232977,12.5614891 C74.3635513,13.4570952 79,18.701961 79,25.0381875 C79,32.0034106 73.3973419,37.6498394 66.4861128,37.6498394 C65.6011569,37.6498394 64.737656,37.5572616 63.9046253,37.3811916 C62.6025044,39.9318036 60.639178,42.0834072 58.2428872,43.6059784 L49.8402324,54.4653754 L61.4667691,54.4653754 C62.8566302,54.4653754 63.9833354,55.584949 63.9833354,56.9877057 C63.9833354,58.3807504 62.8676726,59.5100361 61.4667691,59.5100361 L16.4443528,59.5100361 C15.0544916,59.5100361 13.9277865,58.3904625 13.9277865,56.9877057 C13.9277865,55.5946611 15.0434494,54.4653754 16.4443528,54.4653754 L27.4004758,54.4653754 L24.5409609,47.3325338 Z" id="Shape"></path>
                            </g>
                        </g>
                    </g>
                </g>
            </g>
        </g>
    </g>
</svg>