<?xml version="1.0" encoding="UTF-8" standalone="no"?>
<svg width="29px" height="33px" viewBox="0 0 29 33" version="1.1" xmlns="http://www.w3.org/2000/svg" xmlns:xlink="http://www.w3.org/1999/xlink" xmlns:sketch="http://www.bohemiancoding.com/sketch/ns">
    <!-- Generator: Sketch 3.3.2 (12043) - http://www.bohemiancoding.com/sketch -->
    <title>s</title>
    <desc>Created with Sketch.</desc>
    <defs></defs>
    <g id="Page-1" stroke="none" stroke-width="1" fill="none" fill-rule="evenodd" sketch:type="MSPage">
        <circle id="Oval-1-Copy-25" stroke="#D2D2D2" sketch:type="MSShapeGroup" cx="15" cy="11.96125" r="39"></circle>
        <g id="1433418098_approved_speech-bubble" sketch:type="MSLayerGroup">
            <g id="Group" sketch:type="MSShapeGroup">
                <path d="M26.8590385,25.325146 L18.7067308,25.325146 L18.7067303,32.1192065 L11.361875,25.3251468 L2.28096154,25.325146 C1.10105769,25.325146 0.197115385,24.1499756 0.197115385,22.8331153 L0.197115385,2.63349725 C0.197115385,1.31645508 1.10105769,0.224770642 2.28096154,0.224770642 L26.8588702,0.224770642 C28.038774,0.224770642 28.9709856,1.31645508 28.9709856,2.63349725 L28.9709856,22.8331153 C28.9711538,24.1501574 28.0389423,25.325146 26.8590385,25.325146 Z" id="Shape" fill="#8CBC45"></path>
                <path d="M22.5974279,7.37540826 C22.3631971,7.1221789 21.9760096,7.11471101 21.7330288,7.35877523 L13.4992788,15.6226743 C13.270601,15.8521422 12.9113462,15.8611376 12.6724038,15.6433807 L8.74146635,12.061 C8.48737981,11.8293257 8.10103365,11.8561422 7.87875,12.1209128 L6.67091346,13.5586514 C6.44862981,13.8232523 6.474375,14.2256697 6.72846154,14.4571743 L12.7721875,19.9649128 C13.0111298,20.1826697 13.3703846,20.1736743 13.5990625,19.9442064 L23.8542308,9.65158716 C24.0973798,9.40752294 24.1046154,9.00442661 23.8702163,8.75119725 L22.5974279,7.37540826 L22.5974279,7.37540826 Z" id="Shape" fill="#FFFFFF"></path>
            </g>
        </g>
    </g>
</svg>