<?xml version="1.0" encoding="UTF-8" standalone="no"?>
<svg width="48px" height="37px" viewBox="0 0 48 37" version="1.1" xmlns="http://www.w3.org/2000/svg" xmlns:xlink="http://www.w3.org/1999/xlink" xmlns:sketch="http://www.bohemiancoding.com/sketch/ns">
    <!-- Generator: Sketch 3.3.3 (12072) - http://www.bohemiancoding.com/sketch -->
    <title>Group</title>
    <desc>Created with Sketch.</desc>
    <defs></defs>
    <g id="Page-1" stroke="none" stroke-width="1" fill="none" fill-rule="evenodd" sketch:type="MSPage">
        <g id="Artboard-1-Copy-2" sketch:type="MSArtboardGroup" transform="translate(-218.000000, -1166.000000)">
            <g id="Group" sketch:type="MSLayerGroup" transform="translate(218.000000, 1166.000000)">
                <path d="M5.30220896,2.70567272 L11.6235667,18.6079593 C11.8516477,19.18173 12.557615,19.4818158 13.2003888,19.2782197 C13.8431626,19.0746237 14.1793375,18.4444434 13.9512564,17.8706728 L7.15906793,0.783943428 C6.96496645,0.295653175 6.42476309,0.00557501992 5.871946,0.0554649225 C5.77829737,0.0193735138 5.67913326,-2.22044605e-16 5.57649347,-2.22044605e-16 L1.41995254,-2.22044605e-16 C0.846053998,-2.22044605e-16 0.380817308,0.605685468 0.380817308,1.35283636 C0.380817308,2.09998725 0.846053998,2.70567272 1.41995254,2.70567272 L5.30220896,2.70567272 Z" id="Line" fill="#8CBC45" sketch:type="MSShapeGroup"></path>
                <path d="M4.48156725,27.8094078 C4.71975242,26.6316799 5.18733663,25.3302018 5.18733663,25.3302018 C6.41909908,21.4069422 10.7582541,18.094286 14.8606394,18.0051976 C14.8606394,18.0051976 31.0959896,16.9562523 38.8925437,20.2803091 C40.7629243,21.0777449 45.6280217,21.9138865 46.9043889,28.048602 C47.2457665,29.6893953 47.2543858,30.757734 47.2543858,30.757734 C47.3298185,31.8548211 46.4947449,32.744186 45.3931873,32.744186 L6.47934873,32.744186 C5.37600449,32.744186 4.43155706,31.8469251 4.38845737,30.7371871 C4.38845737,30.7371871 4.23327423,29.0371149 4.48156725,27.8094078 Z" id="Rectangle-11" stroke="#8CBC45" stroke-width="2" sketch:type="MSShapeGroup"></path>
                <ellipse id="Oval-36-Copy-2" stroke="#8CBC45" stroke-width="2" fill="#FFFFFF" sketch:type="MSShapeGroup" cx="16.5263158" cy="29.4883721" rx="6.45614035" ry="6.51162791"></ellipse>
                <ellipse id="Oval-36-Copy-4" fill="#8CBC45" sketch:type="MSShapeGroup" cx="16.5614035" cy="29.5151668" rx="2.5" ry="2.52148635"></ellipse>
                <ellipse id="Oval-36-Copy-3" stroke="#8CBC45" stroke-width="2" fill="#FFFFFF" sketch:type="MSShapeGroup" cx="38.7192982" cy="30.7093023" rx="4.43859649" ry="4.47674419"></ellipse>
                <path d="M18.5633922,16.0986721 C18.8856793,14.5050946 20.4554499,13.1498543 22.0824229,13.0960251 C22.0824229,13.0960251 29.3834525,12.5926019 32.4290911,13.8911083 C35.4747298,15.1896147 34.9684873,18.8844155 34.9684873,18.8844155 L18,18.8844155 L18.5633922,16.0986721 Z" id="Path-Copy" stroke="#8CBC45" stroke-width="2" sketch:type="MSShapeGroup" transform="translate(26.500000, 15.942208) rotate(4.000000) translate(-26.500000, -15.942208) "></path>
                <ellipse id="Oval-36-Copy-5" fill="#8CBC45" sketch:type="MSShapeGroup" cx="38.7192982" cy="30.7007078" rx="1.5" ry="1.51289181"></ellipse>
            </g>
        </g>
    </g>
</svg>