<?xml version="1.0" encoding="UTF-8" standalone="no"?>
<svg width="45px" height="34px" viewBox="0 0 45 34" version="1.1" xmlns="http://www.w3.org/2000/svg" xmlns:xlink="http://www.w3.org/1999/xlink" xmlns:sketch="http://www.bohemiancoding.com/sketch/ns">
    <!-- Generator: Sketch 3.3.3 (12072) - http://www.bohemiancoding.com/sketch -->
    <title>Oval 1 Copy 8</title>
    <desc>Created with Sketch.</desc>
    <defs></defs>
    <g id="Page-1" stroke="none" stroke-width="1" fill="none" fill-rule="evenodd" sketch:type="MSPage">
        <g id="Artboard-1-Copy-2" sketch:type="MSArtboardGroup" transform="translate(-222.000000, -1312.000000)" stroke-width="2" stroke="#8CBC45">
            <g id="Oval-1-Copy-8" sketch:type="MSLayerGroup" transform="translate(223.000000, 1313.000000)">
                <path d="M17.9747404,29.324 L16.5076639,25.6928583 L16.5076639,25.6928583 C18.5726424,25.4402364 20.4080794,24.4448037 21.7385994,22.9819358 C23.1937909,24.1590045 25.0465652,24.864 27.064,24.864 C27.1889058,24.864 27.3131803,24.8612976 27.4367685,24.855948 L27.4367685,24.855948 L23.9525228,29.324 L17.9747404,29.324 Z M15.0885814,29.324 L13.5598674,25.5402998 C11.1476986,24.9852118 9.12892926,23.4004693 7.99111232,21.2736253 L7.99111232,21.2736253 C7.8093667,21.2884448 7.62556565,21.296 7.44,21.296 C3.74521502,21.296 0.75,18.300785 0.75,14.606 C0.75,10.911215 3.74521502,7.916 7.44,7.916 C8.34893575,7.916 9.2155346,8.09726587 10.0056193,8.42562039 C11.1609326,4.02558959 15.1654422,0.78 19.928,0.78 C22.6779766,0.78 25.1752131,1.8621092 27.0171304,3.62374864 L27.0171304,3.62374864 C28.0595628,2.95307498 29.3003447,2.564 30.632,2.564 C33.5715497,2.564 36.0682925,4.45988196 36.9661702,7.09558773 L36.9661702,7.09558773 C40.1953264,7.57067255 42.674,10.3528737 42.674,13.714 C42.674,17.408785 39.678785,20.404 35.984,20.404 C35.5108972,20.404 35.0492644,20.354891 34.6039211,20.2614926 C33.9077994,21.6144949 32.8581932,22.7558385 31.5771216,23.5635044 L27.0850114,29.324 L33.3006284,29.324 C34.0436566,29.324 34.646,29.9178911 34.646,30.662 C34.646,31.400957 34.0495599,32 33.3006284,32 L9.23137156,32 C8.48834336,32 7.886,31.4061089 7.886,30.662 C7.886,29.923043 8.48244014,29.324 9.23137156,29.324 L15.0885814,29.324 Z" sketch:type="MSShapeGroup"></path>
            </g>
        </g>
    </g>
</svg>