<?xml version="1.0" encoding="UTF-8" standalone="no"?>
<svg width="81px" height="81px" viewBox="0 0 81 81" version="1.1" xmlns="http://www.w3.org/2000/svg" xmlns:xlink="http://www.w3.org/1999/xlink" xmlns:sketch="http://www.bohemiancoding.com/sketch/ns">
    <!-- Generator: Sketch 3.3.1 (12002) - http://www.bohemiancoding.com/sketch -->
    <title>icon-drought-water</title>
    <desc>Created with Sketch.</desc>
    <defs></defs>
    <g id="Page-1" stroke="none" stroke-width="1" fill="none" fill-rule="evenodd" sketch:type="MSPage">
        <g id="Artboard-2" sketch:type="MSArtboardGroup" transform="translate(-55.000000, -243.000000)">
            <g id="Oval-1-+-Bitmap-Copy-+-$-Copy" sketch:type="MSLayerGroup" transform="translate(56.000000, 244.000000)" stroke-width="2" stroke="#2BB4FF">
                <g id="Oval-1-+-Bitmap-Copy" sketch:type="MSShapeGroup">
                    <circle id="Oval-1" cx="39.5" cy="39.5" r="39.5"></circle>
                </g>
            </g>
            <path d="M98.4570687,296.44011 C97.6452724,297.657805 96.3835711,299.745282 94.7599785,299.745282 C94.4120658,299.745282 94.0641531,299.455354 94.0641531,299.107442 C94.0641531,298.295645 94.3540804,297.541834 94.8179639,296.32414 L99.2828435,284.669065 C100.09464,282.407632 100.558523,280.494112 100.558523,279.50836 C100.558523,277.652825 99.340829,276.145204 97.0793965,276.145204 C93.8322113,276.145204 92.7217209,277.704782 89.8804339,282.69153 L90.6467709,283.68416 C92.7342471,281.016829 92.4405605,280.378142 94.180124,280.378142 C94.701993,280.378142 94.8759494,280.610083 94.8759494,281.189938 C94.8759494,281.711807 94.4700513,282.755545 93.8322113,284.379138 L89.1933754,296.440111 C88.2656082,298.817514 88.2076227,299.861252 88.2076227,300.557078 C88.2076227,302.470598 89.657259,303.340379 91.338837,303.340379 C95.8037166,303.340379 97.3113385,300.683891 99.2828438,297.204765 L98.4570687,296.44011 Z M103.515781,266.867532 C103.515781,264.896027 101.834203,263.388405 100.036654,263.388405 C98.2391054,263.388405 96.5575274,264.896027 96.5575274,266.867532 C96.5575274,268.839037 98.2391054,270.346659 100.036654,270.346659 C101.834203,270.346659 103.515781,268.839037 103.515781,266.867532 L103.515781,266.867532 Z" id="i" fill="#2BB4FF" sketch:type="MSShapeGroup" transform="translate(95.861702, 283.364392) rotate(-7.000000) translate(-95.861702, -283.364392) "></path>
        </g>
    </g>
</svg>