<?xml version="1.0" encoding="UTF-8" standalone="no"?>
<svg width="64px" height="65px" viewBox="0 0 64 65" version="1.1" xmlns="http://www.w3.org/2000/svg" xmlns:xlink="http://www.w3.org/1999/xlink" xmlns:sketch="http://www.bohemiancoding.com/sketch/ns">
    <!-- Generator: Sketch 3.3 (11970) - http://www.bohemiancoding.com/sketch -->
    <title>Oval 1 + $</title>
    <desc>Created with Sketch.</desc>
    <defs></defs>
    <g id="desktop" stroke="none" stroke-width="1" fill="none" fill-rule="evenodd" sketch:type="MSPage">
        <g id="Desktop@2x" sketch:type="MSArtboardGroup" transform="translate(-89.000000, -4169.000000)">
            <g id="Group-Copy-3" sketch:type="MSLayerGroup" transform="translate(89.000000, 3982.395000)">
                <g id="Oval-1-+-$" transform="translate(0.000000, 187.000000)" sketch:type="MSShapeGroup">
                    <circle id="Oval-1" fill="#FFFFFF" cx="32" cy="32" r="32"></circle>
                    <path d="M41.4706897,22.2336449 C39.1310345,20.5514019 36.8706897,19.5420561 33.8965517,19.2429907 L33.8965517,17 L31.3586207,17 L31.3586207,19.1682243 C26.4810345,19.3925234 23.0310345,22.2336449 23.0310345,26.0841121 L23.0310345,26.1214953 C23.0310345,30.046729 25.6086207,32.0654206 31.4775862,33.3738318 L31.4775862,42.7570093 C28.5034483,42.4205607 26.1637931,41.1869159 23.7844828,39.1682243 L22,41.411215 C24.7758621,43.6542056 27.8293103,44.9626168 31.3586207,45.2616822 L31.3586207,49 L33.8965517,49 L33.8965517,45.3364486 C38.8534483,45.0373832 42.3431034,42.3084112 42.3431034,38.271028 C42.3431034,34.4579439 39.8051724,32.2897196 33.7775862,31.0186916 L33.7775862,21.7850467 C35.8793103,22.0841121 37.8224138,22.9813084 39.7655172,24.4766355 L41.4706897,22.2336449 Z M39.2896552,38.4579439 L39.2896552,38.4953271 C39.2896552,40.9252336 37.187931,42.682243 33.7775862,42.8691589 L33.7775862,33.8598131 C38.1396552,34.9439252 39.2896552,36.2523364 39.2896552,38.4579439 L39.2896552,38.4579439 Z M26.0844828,25.8971963 C26.0844828,23.6168224 28.1068966,21.8224299 31.4775862,21.6728972 L31.4775862,30.4953271 C27.1155172,29.411215 26.0844828,28.0280374 26.0844828,25.8971963 L26.0844828,25.8971963 Z" id="$" fill="#5AA829"></path>
                </g>
            </g>
        </g>
    </g>
</svg>