<?xml version="1.0" encoding="UTF-8" standalone="no"?>
<svg width="81px" height="81px" viewBox="0 0 81 81" version="1.1" xmlns="http://www.w3.org/2000/svg" xmlns:xlink="http://www.w3.org/1999/xlink" xmlns:sketch="http://www.bohemiancoding.com/sketch/ns">
    <!-- Generator: Sketch 3.3.1 (12002) - http://www.bohemiancoding.com/sketch -->
    <title>icon-drought-links copy</title>
    <desc>Created with Sketch.</desc>
    <defs></defs>
    <g id="Page-1" stroke="none" stroke-width="1" fill="none" fill-rule="evenodd" sketch:type="MSPage">
        <g id="Artboard-2" sketch:type="MSArtboardGroup" transform="translate(-56.000000, -587.000000)">
            <g id="noun_112869" sketch:type="MSLayerGroup" transform="translate(81.500000, 607.608696)" fill="#C9810A">
                <path d="M27.2557391,41.4881087 L24.3538696,41.5103478 C23.9751304,41.5103478 23.5936957,41.5116957 23.2136087,41.5218043 C22.9575217,41.5265217 22.7034565,41.5265217 22.4487174,41.5265217 L22.1326522,41.5278696 C21.7667174,41.5298913 21.4001087,41.5312391 21.0335,41.5379783 C20.6716087,41.5440435 20.3103913,41.5440435 19.9485,41.5440435 L19.4902391,41.5460652 L18.7576957,41.4955217 L18.6417826,40.8573261 C18.6289783,40.7737609 18.6202174,40.6666087 18.6370652,40.5412609 L18.3405435,40.3471739 L18.3803043,39.6806739 C18.3931087,39.5654348 18.4052391,39.4481739 18.4241087,39.3329348 L18.1626304,39.2217391 L18.3162826,38.5619783 L18.267087,38.5808478 C18.2293478,38.5053696 18.1916087,38.4285435 18.158587,38.3496957 C18.1141087,38.2472609 18.0399783,38.1387609 17.9200217,38.0039783 C17.8047826,37.9103043 17.7306522,37.8045 17.6828043,37.7310435 L17.630913,37.6501739 C17.6181087,37.6313043 17.6059783,37.6137826 17.5945217,37.594913 C17.4711957,37.5349348 17.3418043,37.4358696 17.2292609,37.2754783 C17.1160435,37.1164348 17.0291087,37.0247826 16.9448696,36.9776087 C16.8485,36.9257174 16.7649348,36.8569783 16.7130435,36.8118261 L16.5816304,36.6898478 C16.5486087,36.6615435 16.5182826,36.6312174 16.492,36.6015652 L16.1772826,36.6217826 C15.8942391,36.6217826 15.632087,36.4876739 15.4676522,36.2706739 L15.1226087,36.1298261 L15.0397174,35.6547174 L15.7783261,35.5374565 L15.7635,35.5280217 L15.0255652,35.5233043 C15.0174783,35.4060435 15.0242174,35.286087 15.043087,35.1580435 L15.0397174,35.1580435 L14.3523261,35.1951087 L14.2256304,35.037413 C14.0517609,34.9976522 13.8859783,34.9235217 13.7370435,34.8177174 C13.4432174,34.8008696 13.1783696,34.6391304 13.0206739,34.3823696 C12.9923696,34.3351957 12.9532826,34.293413 12.9168913,34.2509565 C12.826587,34.1424565 12.7767174,34.0636087 12.7322391,33.9719565 C12.6904565,33.8816522 12.6628261,33.7913478 12.648,33.7017174 C12.5974565,33.6484783 12.5523043,33.5898478 12.5145652,33.5231304 C12.4498696,33.4820217 12.3993261,33.4361957 12.3541739,33.3876739 L12.2308478,33.3115217 C12.2052391,33.3115217 12.1803043,33.3196087 12.1553696,33.3135435 C11.9484783,33.3135435 11.7611304,33.263 11.5993913,33.1693261 C11.3446522,33.1679783 11.0959783,33.0904783 10.8796522,32.9435652 C10.8695435,32.9354783 10.8594348,32.929413 10.8493261,32.922 C10.7630652,32.9118913 10.6781522,32.8883043 10.5972826,32.8566304 C10.4914783,32.8424783 10.3856739,32.8269783 10.2744783,32.7932826 L9.88428261,32.8330435 C9.83373913,32.8397826 9.77982609,32.8445 9.72658696,32.8445 C9.30606522,32.8350652 8.97652174,32.5917826 8.84982609,32.2352826 L8.40302174,32.0560217 L8.35854348,31.4542174 C8.3545,31.239913 8.40571739,31.0370652 8.51152174,30.8584783 C8.51084783,30.8470217 8.5095,30.8382609 8.50882609,30.8268043 C8.49467391,30.6832609 8.51084783,30.558587 8.54252174,30.4507609 C8.5148913,30.3826957 8.494,30.309913 8.47984783,30.2364565 L8.43402174,29.9803696 L8.54521739,29.7445 C8.55195652,29.7316957 8.55802174,29.7175435 8.56273913,29.7047391 C8.45356522,29.6541957 8.34304348,29.5773696 8.23993478,29.4553913 C8.05730435,29.2390652 7.94071739,28.9182826 7.936,28.6352391 L7.9306087,28.3495 C7.80728261,28.2389783 7.69945652,28.1082391 7.60173913,27.9512174 C7.53973913,27.8528261 7.4966087,27.7476957 7.47302174,27.6385217 L7.40832609,27.5987609 C7.22973913,27.4949783 7.0835,27.3258261 6.99521739,27.1182609 C6.95073913,27.0144783 6.91771739,26.9073261 6.89615217,26.7961304 C6.84493478,26.7253696 6.7991087,26.6424783 6.76473913,26.5562174 C6.6393913,26.3938043 6.56458696,26.1929783 6.55245652,25.970587 C6.37791304,25.8095217 6.28019565,25.5972391 6.26402174,25.3640652 C6.24582609,25.3559783 6.21415217,25.3088043 6.16967391,25.2535435 C6.09756522,25.1652609 6.01736957,25.0843913 5.9311087,25.008913 C5.85967391,24.9455652 5.8023913,24.8815435 5.75723913,24.8148261 L5.48026087,24.6786957 L5.41152174,23.5087826 C5.4095,23.4771087 5.40882609,23.4454348 5.40882609,23.4137609 L5.18913043,23.2398913 L5.57865217,22.3880652 L5.84215217,22.235087 C5.38321739,22.1131087 5.03817391,21.8213043 4.84678261,21.3947174 C4.80634783,21.3064348 4.7531087,21.1945652 4.69245652,21.1103261 C4.55228261,20.9202826 4.45523913,20.7093478 4.40536957,20.4842609 C4.36763043,20.3198261 4.36695652,20.1486522 4.40402174,19.9808478 L4.464,19.685 L4.22206522,19.4875435 L4.40671739,18.9349348 C4.48084783,18.7273696 4.6965,18.3782826 5.29897826,18.3782826 C5.4303913,18.3782826 5.54697826,18.3850217 5.6521087,18.3958043 C5.62178261,18.2219348 5.59617391,18.0527826 5.57528261,17.8964348 C5.35154348,17.9449565 5.10623913,17.9200217 4.30158696,17.7623261 L3.95586957,17.7360435 C3.67821739,17.7003261 3.44976087,17.5574565 3.30486957,17.3404565 C3.08854348,17.0196739 3.09595652,16.6045435 3.31632609,16.2958913 C3.25095652,16.128087 3.22130435,15.9454565 3.23276087,15.7675435 C3.19367391,15.7298043 3.1566087,15.6880217 3.12021739,15.6408478 C3.08921739,15.601087 3.05013043,15.5687391 3.0123913,15.5363913 C2.8263913,15.3733043 2.66802174,15.1859565 2.54267391,14.980413 C2.5008913,14.9103261 2.44832609,14.8146304 2.41463043,14.6913043 C2.40115217,14.6421087 2.3715,14.5787609 2.33645652,14.5100217 C2.2528913,14.422413 2.18145652,14.3253696 2.11945652,14.2175435 C2.09721739,14.1791304 2.07565217,14.1400435 2.05408696,14.0989348 C2.03117391,14.0787174 2.0096087,14.0571522 1.98736957,14.035587 C1.8856087,13.9318043 1.80743478,13.8165652 1.75419565,13.6932391 C1.63019565,13.539587 1.54393478,13.3596522 1.50215217,13.1642174 L1.47991304,13.0604348 L1.50821739,12.4444783 L1.67063043,12.3575435 L1.54865217,11.4983043 C1.52506522,11.338587 1.53517391,11.1903261 1.581,11.0461087 L1.6841087,10.7064565 C1.72252174,10.5844783 1.7723913,10.4712609 1.83169565,10.361413 L1.76767391,9.79667391 C1.70297826,9.69895652 1.65378261,9.59247826 1.62143478,9.47926087 C1.58841304,9.42265217 1.55876087,9.35795652 1.53517391,9.28652174 C1.48597826,9.22384783 1.44419565,9.16319565 1.40780435,9.10726087 C1.34917391,9.01628261 1.30806522,8.92193478 1.28245652,8.82556522 C1.2191087,8.77771739 1.14632609,8.70965217 1.08230435,8.61597826 L0.977847826,8.40436957 C0.95223913,8.38145652 0.927304348,8.35719565 0.903043478,8.33158696 C0.612586957,8.02428261 0.512847826,7.62869565 0.624717391,7.23917391 C0.62673913,7.1973913 0.625391304,7.18256522 0.624717391,7.17784783 C0.535086957,6.93119565 0.559347826,6.65286957 0.696152174,6.40958696 L1.10454348,5.6831087 C1.19080435,5.5281087 1.30941304,5.3993913 1.45565217,5.30234783 C1.50080435,5.27202174 1.55,5.22956522 1.60391304,5.17228261 L1.6483913,5.12645652 C1.66052174,5.05232609 1.68276087,4.97886957 1.71443478,4.90676087 C1.7258913,4.88047826 1.73734783,4.85352174 1.75015217,4.8258913 C1.73802174,4.7793913 1.72858696,4.73423913 1.72184783,4.68908696 C1.70702174,4.58732609 1.70028261,4.48556522 1.70095652,4.38447826 C1.70365217,4.12636957 1.80069565,3.8958913 1.96513043,3.72606522 C1.98130435,3.66676087 2.00354348,3.60745652 2.03117391,3.5495 L2.139,3.58521739 C2.16663043,3.56836957 2.19493478,3.55219565 2.22458696,3.53804348 L2.06958696,3.46593478 C2.14776087,3.29745652 2.19628261,3.11954348 2.21919565,2.92073913 L2.25963043,2.62084783 C2.25491304,2.53526087 2.24076087,2.46921739 2.21582609,2.40047826 C2.1801087,2.36071739 2.14843478,2.32028261 2.1181087,2.27782609 C2.07497826,2.21784783 2.03386957,2.14708696 2.00017391,2.07430435 L1.7306087,1.49945652 L1.91121739,0.10176087 L3.2913913,0.155 L3.43628261,0.234521739 L14.9797391,1.97456522 C15.0215217,1.98063043 15.0720652,1.99073913 15.1239565,2.00219565 L15.7574348,2.14236957 L15.7911304,2.85671739 L14.2822391,14.2451739 L29.023413,31.3565 L29.1022609,31.9872826 C29.1494348,32.0708478 29.1858261,32.1625 29.2080652,32.2602174 C29.224913,32.2770652 29.2444565,32.2952609 29.2619783,32.3121087 C29.4149565,32.4698043 29.5113261,32.6618696 29.5409783,32.8694348 L29.6299348,33.1908913 L29.7923478,33.4247391 L29.7889783,33.4516957 L29.8240217,33.4671957 L29.8941087,33.6545435 C29.9096087,33.6686957 29.9237609,33.6848696 29.937913,33.7003696 C30.1683913,33.8250435 30.3388913,34.0238478 30.4318913,34.2738696 L30.5026522,34.4093261 L30.512087,35.6526957 L29.9884565,35.6041739 C29.8617609,35.7598478 29.675087,35.8737391 29.4641522,35.9168696 C29.4466304,35.9263043 29.4277609,35.937087 29.4102391,35.9471957 C29.4068696,35.9552826 29.4041739,35.9626957 29.4021522,35.9687609 L29.3057826,36.2214783 L29.2356957,36.2639348 C29.2356957,36.3838913 29.2121087,36.5038478 29.1649348,36.619087 L29.163587,36.6258261 L29.3529565,37.208087 L29.0719348,37.4136304 C29.0651957,37.456087 29.0584565,37.4971957 29.0510435,37.5369565 C29.0133043,37.7472174 28.9128913,37.9305217 28.7551957,38.0808043 C28.7343043,38.1010217 28.713413,38.121913 28.6952174,38.1441522 C28.6635435,38.1805435 28.6251304,38.2263696 28.574587,38.2735435 C28.5604348,38.3065652 28.542913,38.3429565 28.5220217,38.3773261 L28.6851087,38.6617174 L28.5375217,38.8423261 C28.635913,38.9117391 28.7228478,38.998 28.7956304,39.1031304 L28.9351304,39.3673043 C29.008587,39.4838913 29.0463261,39.6382174 29.0416087,39.8019783 C29.1063043,40.021 29.0887826,40.2629348 28.9856739,40.4839783 C28.9479348,40.5601304 28.9108696,40.6295435 28.8677391,40.695587 C28.8239348,40.7589348 28.7774348,40.8175652 28.7268913,40.8708043 C28.6891522,41.0150217 28.6244565,41.168 28.5166304,41.3081739 L27.2557391,41.4881087 L27.2557391,41.4881087 Z M20.0374565,39.4811957 C20.1506739,39.5964348 20.234913,39.7372826 20.2881522,39.8949783 C20.2948913,39.9057609 20.3009565,39.9151957 20.3056739,39.9266522 C20.5395217,39.9266522 20.7726957,39.9246304 21.0051957,39.919913 C21.3798913,39.9131739 21.7518913,39.9118261 22.1245652,39.9104783 L22.4473696,39.9084565 C22.6906522,39.9084565 22.9339348,39.9084565 23.1751957,39.9037391 C23.567413,39.8943043 23.9589565,39.8922826 24.3505,39.8922826 L26.9443913,39.8525217 L26.8176957,39.6436087 C26.8062391,39.6281087 26.7974783,39.6119348 26.7873696,39.5964348 L26.5218478,39.1368261 L26.6485435,38.9663261 L26.6182174,38.9548696 L26.7745652,38.0262174 L26.7334565,37.6171522 L27.1391522,37.3489348 C27.1836304,37.3192826 27.2294565,37.2936739 27.2752826,37.2721087 C27.3271739,37.2067391 27.3871522,37.1481087 27.4552174,37.0982391 L27.4774565,36.5739348 L27.5482174,36.5200217 L27.551587,36.4533043 C27.5549565,36.4115217 27.5596739,36.3346957 27.5798913,36.2430435 C27.5549565,36.1136522 27.5529348,35.9869565 27.5718043,35.859587 C27.6034783,35.641913 27.7092826,35.4478261 27.8703478,35.3069783 C27.8750652,35.3002391 27.8797826,35.2941739 27.8845,35.2881087 C27.8959565,35.2375652 27.9101087,35.1843261 27.9283043,35.1290652 L28.0327609,34.8426522 L28.4175652,34.634413 C28.4384565,34.6263261 28.4573261,34.6168913 28.4782174,34.6054348 C28.3858913,34.5252391 28.3279348,34.4396522 28.2888478,34.3661957 C28.2504348,34.2961087 28.156087,34.1215652 28.1446304,33.8823261 C28.0812826,33.781913 28.0374783,33.6693696 28.0138913,33.5473913 L27.9822174,33.5446957 L27.7692609,33.178087 C27.7234348,33.0958696 27.6937826,33.0183696 27.675587,32.9503043 L27.5886522,32.9152609 L27.4437609,31.9980652 L12.904087,15.1232826 C12.6823696,14.8975217 12.5886957,14.5861739 12.6473261,14.2586522 C12.6587826,14.1973261 12.6648478,14.1380217 12.6722609,14.0787174 L14.0827609,3.47806522 L3.75908696,1.92132609 C3.81636957,2.0925 3.85276087,2.25693478 3.86826087,2.42271739 C3.8803913,2.54132609 3.87904348,2.66128261 3.86758696,2.77854348 C3.86017391,2.84863043 3.85141304,2.91736957 3.84063043,2.98543478 L3.82580435,3.10134783 C3.78402174,3.47334783 3.68630435,3.82513043 3.53467391,4.14995652 L3.534,4.15197826 C3.5286087,4.20117391 3.52186957,4.24969565 3.51243478,4.29686957 C3.48615217,4.42356522 3.43763043,4.54082609 3.37023913,4.64326087 C3.38978261,4.774 3.39045652,4.8926087 3.37630435,5.01728261 C3.36821739,5.09141304 3.3533913,5.16554348 3.33182609,5.23832609 C3.42280435,5.5955 3.30486957,5.99917391 3.00430435,6.23706522 L2.78393478,6.41295652 L2.64173913,6.42373913 C2.58176087,6.47832609 2.52178261,6.52886957 2.46045652,6.57604348 L2.22930435,6.98645652 C2.24547826,7.12326087 2.24413043,7.25130435 2.23806522,7.36182609 C2.30815217,7.44067391 2.36813043,7.52963043 2.418,7.62869565 C2.4281087,7.63476087 2.43686957,7.6415 2.44697826,7.64756522 C2.60332609,7.75202174 2.72732609,7.90230435 2.8108913,8.08830435 C2.852,8.18130435 2.87828261,8.27565217 2.89108696,8.37067391 C2.9706087,8.47445652 3.02115217,8.5768913 3.05215217,8.67056522 L3.13773913,8.75345652 L3.16806522,8.95495652 C3.27723913,9.09782609 3.34193478,9.26563043 3.35743478,9.45028261 L3.43291304,10.1835 C3.46863043,10.5285435 3.40865217,10.8479783 3.25432609,11.1330435 L3.16536957,11.3925 L3.30891304,12.4047174 C3.32306522,12.5098478 3.34463043,12.6661957 3.30756522,12.8515217 C3.29678261,12.9074565 3.28263043,12.9606957 3.2651087,13.0132609 C3.34058696,13.0914348 3.40393478,13.182413 3.45245652,13.2841739 C3.472,13.3259565 3.49356522,13.369087 3.51782609,13.4108696 C3.5858913,13.4634348 3.66878261,13.5685652 3.73145652,13.6912174 C3.80693478,13.8374565 3.88780435,13.9938043 3.9471087,14.1784565 C3.98282609,14.2296739 4.02393478,14.2755 4.07380435,14.3186304 C4.13108696,14.3685 4.18634783,14.4190435 4.23958696,14.4729565 L4.47478261,14.484413 L4.77804348,15.1259783 C4.81578261,15.2762609 4.85823913,15.4791087 4.85621739,15.7082391 C4.94045652,15.81 5.00515217,15.9272609 5.04693478,16.0586739 C5.05502174,16.0822609 5.06445652,16.1132609 5.07523913,16.151 L5.40006522,16.0606957 L5.52204348,15.9676957 L5.86169565,15.9454565 C5.99782609,15.9454565 6.10632609,15.9751087 6.18584783,16.0007174 C6.29232609,16.0364348 6.38936957,16.0869783 6.47428261,16.1503261 L6.47563043,16.1503261 L7.23041304,16.9987826 C7.23243478,17.1234565 7.20682609,17.2474565 7.1556087,17.3640435 C7.24052174,17.8351087 7.4298913,18.7610652 7.51345652,19.118913 C7.53636957,19.1586739 7.55591304,19.1997826 7.57276087,19.242913 C7.69002174,19.5556087 7.70215217,19.8528043 7.61386957,20.1358478 C7.50334783,20.4916739 7.223,20.7255217 6.86986957,20.7632609 C6.89008696,20.7713478 6.91097826,20.7787609 6.93052174,20.7868478 C7.11382609,20.863 7.2641087,20.994413 7.36519565,21.1608696 C7.60915217,21.3765217 7.72304348,21.6959565 7.66913043,22.032913 C7.71158696,22.2317174 7.69204348,22.4399565 7.61184783,22.63 C7.6051087,22.7169348 7.58623913,22.8119565 7.54647826,22.9123696 C7.46965217,23.1118478 7.36047826,23.2823478 7.22097826,23.4211739 C7.16234783,23.4798043 7.10034783,23.5303478 7.03565217,23.5755 L7.03497826,23.5775217 L7.0471087,23.7884565 C7.07406522,23.8268696 7.09697826,23.8659565 7.11786957,23.9057174 C7.22704348,24.0115217 7.32947826,24.1220435 7.4245,24.2386304 C7.54513043,24.3875652 7.63880435,24.5311087 7.71293478,24.6793696 C7.74663043,24.7474348 7.7756087,24.8148261 7.79919565,24.8835652 C7.88882609,24.9731957 7.97104348,25.0918043 8.03236957,25.2495 C8.07415217,25.3573261 8.10582609,25.4658261 8.12941304,25.575 L8.18602174,25.6086957 L8.23656522,25.8216522 L8.40504348,25.9449783 L8.46569565,26.3513478 C8.4838913,26.3621304 8.50343478,26.372913 8.52230435,26.3843696 C8.82623913,26.5501522 8.9488913,26.8015217 8.99741304,26.9834783 C9.00684783,27.0151522 9.01695652,27.0515435 9.02706522,27.0919783 L9.11804348,27.0919783 L9.47521739,27.3211087 L9.57495652,27.4754348 C9.68413043,27.6493043 9.70973913,27.8171087 9.72119565,27.8878696 C9.75758696,28.0597174 9.7495,28.217413 9.74545652,28.303 C9.74478261,28.3124348 9.7441087,28.3232174 9.74208696,28.3360217 C9.86541304,28.4182391 9.9665,28.5321304 10.0345652,28.6648913 C10.1302609,28.7767609 10.2138261,28.9283913 10.2549348,29.1352826 C10.3021087,29.3725 10.2906522,29.6090435 10.2185435,29.8415435 C10.2016957,29.8981522 10.1841739,29.953413 10.168,30.0053043 C10.2306739,30.1576087 10.2502174,30.3281087 10.222587,30.4979348 C10.2138261,30.566 10.207087,30.6165435 10.1963043,30.6650652 C10.1902391,30.6940435 10.1808043,30.7391957 10.1612609,30.7978261 L10.292,31.1725217 L10.3203043,31.1705 C10.4557609,31.1705 10.5918913,31.194087 10.7239783,31.240587 L10.8055217,31.2520435 C10.85,31.2567609 10.912,31.2648478 10.9854565,31.2816957 L11.0501522,31.2635 L11.2725435,31.2918043 C11.3877826,31.3153913 11.5427826,31.3706522 11.6883478,31.5020652 L12.0846087,31.3565 L12.3730435,31.6799783 C12.5738696,31.6799783 12.7699783,31.7386087 12.9404783,31.8491304 L13.1851087,31.999413 C13.3212391,32.085 13.4351304,32.178 13.5328478,32.2804348 L13.5982174,32.3356957 C13.6662826,32.3956739 13.724913,32.4576739 13.7774783,32.519 C13.7848913,32.5237174 13.7916304,32.527087 13.7970217,32.5318043 C14.1117391,32.7272391 14.2411304,33.0021957 14.2930217,33.1962826 L14.314587,33.2751304 C14.3846739,33.3101739 14.4419565,33.3452174 14.4823913,33.3688043 C14.5268696,33.3971087 14.5693261,33.425413 14.6097609,33.4523696 L14.9413261,33.440913 L15.0484783,33.542 C15.1960652,33.542 15.3423043,33.5548043 15.4878696,33.5817609 C15.6731957,33.6181522 15.8322391,33.673413 15.9791522,33.7536087 C16.1381957,33.8405435 16.2702826,33.9591522 16.3673261,34.1060652 C16.5048043,34.309587 16.5964565,34.5164783 16.647,34.7361739 C16.6490217,34.742913 16.6503696,34.7503261 16.6517174,34.758413 C16.793913,34.7712174 16.933413,34.805587 17.0675217,34.8642174 L17.1874783,34.9174565 L17.3438261,35.0428043 C17.5176957,35.1984783 17.6450652,35.3662826 17.7306522,35.5529565 L17.770413,35.5893478 C18.0413261,35.7416522 18.2536087,35.9606739 18.4180435,36.1655435 C18.6168478,36.2605652 18.7826304,36.4182609 18.8965217,36.6271739 C18.918087,36.6709783 18.948413,36.7127609 18.9767174,36.7545435 L19.0683696,36.8637174 C19.2577391,37.0692609 19.4888913,37.3455652 19.646587,37.7182391 C19.6654565,37.7640652 19.6890435,37.8105652 19.7133043,37.8557174 L19.7476739,37.9285 C19.8251739,38.0841739 19.8770652,38.245913 19.9053696,38.4049565 C19.9073913,38.4116957 19.9073913,38.416413 19.9087391,38.4204565 L19.9768043,38.5545652 C20.026,38.7203478 20.0374565,38.8692826 20.0455435,38.9764348 C20.0596957,39.1698478 20.0563261,39.3288913 20.0374565,39.4811957 L20.0374565,39.4811957 Z M18.3162826,38.5619783 C18.3081957,38.6057826 18.3081957,38.6536304 18.3162826,38.696087 L19.0238913,38.2856739 L18.3162826,38.5619783 L18.3162826,38.5619783 Z M6.07802174,19.8568478 C6.15282609,20.0239783 6.28423913,20.1553913 6.44463043,20.2288478 C6.30513043,20.1634783 6.1845,20.0219565 6.08206522,19.8339348 L6.07802174,19.8568478 L6.07802174,19.8568478 Z M2.16393478,3.59532609 L2.80145652,3.8076087 L2.23671739,3.54478261 C2.2111087,3.5596087 2.18684783,3.57713043 2.16393478,3.59532609 L2.16393478,3.59532609 Z" id="Shape" sketch:type="MSShapeGroup"></path>
            </g>
            <circle id="Oval-1-Copy-4" stroke="#C98109" stroke-width="2" sketch:type="MSShapeGroup" cx="96.5" cy="627.5" r="39.5"></circle>
        </g>
    </g>
</svg>