<?xml version="1.0" encoding="UTF-8" standalone="no"?>
<svg width="150px" height="150px" viewBox="0 0 150 150" version="1.1" xmlns="http://www.w3.org/2000/svg" xmlns:xlink="http://www.w3.org/1999/xlink" xmlns:sketch="http://www.bohemiancoding.com/sketch/ns">
    <!-- Generator: Sketch 3.3 (11970) - http://www.bohemiancoding.com/sketch -->
    <title>icon-cleaning + Oval 15 Copy</title>
    <desc>Created with Sketch.</desc>
    <defs></defs>
    <g id="desktop" stroke="none" stroke-width="1" fill="none" fill-rule="evenodd" sketch:type="MSPage">
        <g id="Desktop@2x" sketch:type="MSArtboardGroup" transform="translate(-406.000000, -2796.000000)">
            <g id="icon-cleaning-+-Oval-15-Copy" sketch:type="MSLayerGroup" transform="translate(406.000000, 2796.000000)">
                <circle id="Oval-15-Copy" fill="#F7F8F7" sketch:type="MSShapeGroup" cx="75" cy="75" r="75"></circle>
                <g id="icon-cleaning" transform="translate(36.471698, 42.132075)" fill="#8CBC45" sketch:type="MSShapeGroup">
                    <g id="Page-1">
                        <g id="Artboard-1-Copy-2" transform="translate(0.000000, 0.000000)">
                            <g id="Shape">
                                <path d="M37.3342533,29.7509154 C37.0173991,29.7509154 36.7797587,29.6778173 36.5421181,29.5316212 C35.4331287,29.458523 33.8488584,29.312327 32.0269473,29.0930328 C26.1651467,28.43515 17.3724459,27.411777 8.65895846,28.8006404 C7.78760972,28.9468366 6.9954745,28.362052 6.83704747,27.6310712 C6.67862043,26.8269925 7.3123286,26.0960117 8.10446382,25.9498155 C17.2140188,24.5609522 26.3235737,25.5843253 32.3438014,26.2422079 C34.4825665,26.4615021 36.1460504,26.6807963 37.0966127,26.6807963 C37.3342533,26.6807963 37.5718938,26.7538944 37.8095344,26.8269925 C39.5522319,26.6076983 40.8196482,25.2188349 40.8196482,23.5375792 C40.8196482,21.7101274 39.2353778,20.2481659 37.2550398,20.2481659 C35.9876235,20.2481659 34.8786341,20.8329505 34.2449259,21.7832254 C33.7696448,22.4411082 32.8190825,22.6604024 32.0269473,22.2218138 C31.3140256,21.7832254 31.0763851,20.9060487 31.5516662,20.1750679 C32.8190825,18.3476161 34.9578476,17.251145 37.2550398,17.251145 C40.9780753,17.251145 43.988189,20.0288717 43.988189,23.4644812 C43.988189,26.9000905 41.0572889,29.7509154 37.3342533,29.7509154 L37.3342533,29.7509154 Z M32.9775096,44.3705298 C31.0763851,44.3705298 29.3336876,45.2477066 28.3039117,46.7827662 C27.8286307,47.4406487 28.0662713,48.3909237 28.779193,48.8295121 C29.4921147,49.2681007 30.5218904,49.0488063 30.9971716,48.3909237 C31.4724527,47.7330411 32.1853744,47.3675507 32.9775096,47.3675507 C34.3241394,47.3675507 35.3539153,48.3178257 35.3539153,49.5604929 C35.3539153,50.80316 34.3241394,51.753435 32.9775096,51.753435 L32.8982961,51.753435 L32.8190825,51.753435 C32.0269473,51.753435 30.6011039,51.5341408 28.8584065,51.2417486 C23.7887411,50.2914736 15.1544672,48.8295121 7.23311508,50.9493562 C6.36176633,51.1686504 5.88648521,51.9727292 6.12412578,52.776808 C6.36176633,53.5808869 7.23311508,54.0194753 8.10446382,53.8001811 C15.3128943,51.8996312 23.155033,53.2153965 28.3039117,54.0925733 C30.2842499,54.4580637 31.7893068,54.6773579 32.8190825,54.6773579 L32.8982961,54.6773579 L32.9775096,54.6773579 C36.066837,54.6773579 38.5224561,52.4113177 38.5224561,49.5604929 C38.5224561,46.709668 36.066837,44.3705298 32.9775096,44.3705298 L32.9775096,44.3705298 Z M60.3061746,23.318285 C56.583139,23.318285 53.256171,25.0726387 51.275833,27.9234636 C50.8005519,28.5813462 51.0381926,29.5316212 51.7511143,29.9702095 C52.464036,30.4087979 53.4938116,30.1895037 53.9690927,29.5316212 C55.3949361,27.484875 57.7713418,26.3153059 60.3061746,26.3153059 C64.4252777,26.3153059 67.8314591,29.458523 67.8314591,33.2596228 C67.8314591,37.0607225 64.4252777,40.2039396 60.3061746,40.2039396 L60.1477475,40.2039396 L59.9893204,40.2039396 C58.088196,40.2039396 54.761228,39.619155 50.5629113,38.9612724 C38.9185238,36.9145263 19.3527839,33.6251132 1.60895504,38.4495859 C0.737606307,38.6688801 0.262325178,39.472959 0.499965742,40.2770378 C0.737606307,41.0811166 1.60895504,41.5197049 2.48030379,41.3004107 C19.511211,36.6952321 37.8095344,39.8384492 50.0084167,41.8851953 C54.3651604,42.6161761 57.7713418,43.2009607 59.9893204,43.2009607 L60.1477475,43.2009607 L60.3061746,43.2009607 C66.2471886,43.2009607 71,38.7419782 71,33.3327208 C71,27.9234636 66.1679751,23.318285 60.3061746,23.318285 L60.3061746,23.318285 Z M61.3359503,15.5698894 C60.6230286,14.0348298 59.7516798,12.7190645 58.8803312,11.5494954 C59.9893204,9.86823973 59.8308934,7.52910142 58.4842635,5.26306119 C56.9792066,2.70462867 53.4938116,1.24344979e-13 48.2657192,1.24344979e-13 C44.0674025,1.24344979e-13 39.7106588,1.75435374 35.1954882,5.18996312 C34.6409936,5.62855154 34.4825665,6.43263034 34.7994205,7.01741491 C35.1954882,7.60219949 35.9876235,7.89459178 36.7005451,7.67529757 C36.7005451,7.67529757 37.3342533,7.45600336 38.2848155,7.45600336 C40.1859401,7.45600336 42.8791998,8.18698407 44.9387513,11.7687896 C46.2853812,14.1079279 48.5033598,15.4236932 51.1174059,15.4236932 C53.0977441,15.4236932 55.0780821,14.6927125 56.5039255,13.7424376 C57.1376337,14.6196144 57.6921283,15.5698894 58.2466229,16.7394584 C58.4842635,17.324243 59.1179717,17.6166354 59.6724663,17.6166354 C59.9101069,17.6166354 60.068534,17.5435374 60.3061746,17.4704392 C61.3359503,17.1049488 61.732018,16.3008701 61.3359503,15.5698894 L61.3359503,15.5698894 Z M51.275833,12.4997703 C49.7707761,12.4997703 48.6617869,11.8418877 47.8696516,10.3799262 C45.8893136,6.94431685 43.2752673,5.48235541 41.1365022,4.89757083 C43.671335,3.58180553 46.1269541,2.85082482 48.3449327,2.85082482 C52.1471818,2.85082482 54.6820144,4.82447275 55.7910038,6.65192457 C56.2662849,7.38290528 56.5039255,8.18698407 56.5039255,8.84486673 C53.6522387,6.35953228 51.0381926,5.70164962 50.8797655,5.62855154 C50.0084167,5.40925733 49.1370679,5.84784577 48.8994275,6.65192457 C48.6617869,7.45600336 49.1370679,8.26008215 50.0084167,8.47937636 C50.0084167,8.47937636 52.3056089,9.06416094 54.6820144,11.3302012 C53.7314523,11.9880838 52.5432493,12.4997703 51.275833,12.4997703 L51.275833,12.4997703 Z M64.9797723,58.7708499 C64.6629181,58.2591634 64.02921,57.8936732 63.3955018,57.9667712 C62.4449397,58.0398692 61.3359503,57.8936732 60.385388,57.747477 C62.9994343,52.1189254 59.5932529,47.2213545 59.4348258,47.0020604 C59.0387581,46.4903738 58.3258364,46.1979816 57.6129147,46.4172758 C56.899993,46.63657 56.5039255,47.2213545 56.5039255,47.8792371 C56.5039255,48.9757083 54.8404415,50.656964 53.1769576,51.9727292 C51.8303276,49.1950025 48.7410004,48.2447275 48.5825733,48.1716295 C48.0280787,48.0254333 47.3943706,48.0985315 46.9983029,48.4640217 C46.6022353,48.8295121 46.3645947,49.4142967 46.5230218,49.9259832 C46.9983029,51.4610428 46.0477407,52.8499061 45.0971784,54.3118675 C44.7011107,54.8966521 44.3842567,55.4814367 44.0674025,56.0662212 C43.1168404,58.0398692 43.3544809,60.2328115 44.7011107,62.2795574 C43.4336944,62.4988516 41.9286375,62.4257536 40.3443672,62.0602632 C39.4730184,61.840969 38.6016696,62.2795574 38.364029,63.0836362 C38.1263885,63.887715 38.6016696,64.6917937 39.4730184,64.9110879 C40.7404347,65.2765783 42.007851,65.4227745 43.1168404,65.4227745 C44.4634702,65.4227745 45.8101001,65.2034803 46.9190893,64.8379899 C48.5033598,66.1537553 50.3252709,66.8116379 52.3848224,66.8116379 C58.4842635,66.8116379 64.4252777,60.817596 64.6629181,60.5983017 C65.1381994,60.0135171 65.2174129,59.3556345 64.9797723,58.7708499 L64.9797723,58.7708499 Z M52.464036,63.7415188 C51.6719007,63.7415188 50.958979,63.5953228 50.3252709,63.3029304 C51.8303276,62.3526554 53.0185306,61.3292825 53.7314523,60.4521057 C54.2067333,59.7942229 54.0483063,58.9170461 53.3353846,58.4053596 C52.6224629,57.9667712 51.6719007,58.1129674 51.1174059,58.7708499 C51.1174059,58.7708499 49.9292032,60.2328115 47.8696516,61.2561844 C47.0775164,60.2328115 46.3645947,58.7708499 47.0775164,57.2357904 C47.315157,56.797202 47.5527975,56.3586136 47.9488652,55.846927 C48.5825733,54.8966521 49.3747086,53.6539849 49.6915626,52.2651216 C50.2460573,52.776808 50.6421249,53.5808869 50.7213384,54.5311617 C50.7213384,55.0428483 51.1174059,55.4814367 51.5926872,55.773829 C52.0679683,55.9931232 52.7016764,55.9931232 53.1769576,55.7007309 C53.8898793,55.2621425 56.424712,53.6539849 58.088196,51.680337 C58.4842635,53.3615925 58.40505,55.7007309 56.8207795,57.9667712 C56.583139,58.3322615 56.5039255,58.843948 56.6623526,59.2094383 C56.8207795,59.6480269 57.2168472,59.9404191 57.6129147,60.0866153 C57.6921283,60.0866153 58.6426906,60.3790075 59.9101069,60.6713999 C57.8505553,62.1333612 55.0780821,63.7415188 52.464036,63.7415188 L52.464036,63.7415188 L52.464036,63.7415188 Z"></path>
                            </g>
                        </g>
                    </g>
                </g>
            </g>
        </g>
    </g>
</svg>