<?xml version="1.0" encoding="UTF-8" standalone="no"?>
<svg width="81px" height="81px" viewBox="0 0 81 81" version="1.1" xmlns="http://www.w3.org/2000/svg" xmlns:xlink="http://www.w3.org/1999/xlink" xmlns:sketch="http://www.bohemiancoding.com/sketch/ns">
    <!-- Generator: Sketch 3.3.1 (12002) - http://www.bohemiancoding.com/sketch -->
    <title>icon-drought-fine</title>
    <desc>Created with Sketch.</desc>
    <defs></defs>
    <g id="Page-1" stroke="none" stroke-width="1" fill="none" fill-rule="evenodd" sketch:type="MSPage">
        <g id="Artboard-2" sketch:type="MSArtboardGroup" transform="translate(-55.000000, -140.000000)">
            <circle id="Oval-1" stroke="#C11313" stroke-width="2" sketch:type="MSShapeGroup" cx="95.5" cy="180.5" r="39.5"></circle>
            <path d="M102.180037,190.063996 C102.631817,189.266737 102.857704,188.343259 102.857704,187.293534 C102.857704,185.632577 102.246481,184.370269 101.024017,183.506572 C100.319771,183.001641 99.1371878,182.523293 97.4762311,182.071512 L97.4762311,192.555419 C99.7484199,192.449117 101.316339,191.618651 102.180037,190.063996 L102.180037,190.063996 Z M92.0249986,176.411 C92.8953399,177.155109 94.0679577,177.67332 95.5428872,177.965648 L95.5428872,168.597899 C93.8022046,168.664338 92.5631495,169.195836 91.8256848,170.19241 C91.08822,171.188984 90.7194932,172.232049 90.7194932,173.321636 C90.7194932,174.637114 91.1546573,175.666892 92.0249986,176.411 L92.0249986,176.411 Z M89.3541936,168.099615 C90.835767,166.478521 92.9119317,165.654699 95.58275,165.628124 L95.58275,162.97725 L97.4762311,162.97725 L97.4762311,165.588261 C100.120474,165.774288 102.150133,166.554926 103.565268,167.930198 C104.980403,169.30547 105.721179,171.12253 105.787617,173.381431 L102.299625,173.381431 C102.206612,172.371569 101.934219,171.501241 101.482439,170.77042 C100.645316,169.428367 99.3099273,168.724132 97.4762311,168.657693 L97.4762311,178.344344 C100.558967,179.208042 102.651741,180.018576 103.754616,180.775973 C105.548449,182.025012 106.445352,183.871968 106.445352,186.316896 C106.445352,189.851412 105.295988,192.362741 102.997224,193.850958 C101.721609,194.674793 99.8812964,195.219578 97.4762311,195.485331 L97.4762311,199.352019 L95.58275,199.352019 L95.58275,195.485331 C91.7160428,195.232866 89.0917707,193.864258 87.7098547,191.379467 C86.9524585,190.037414 86.573766,188.223677 86.573766,185.9382 L90.1016204,185.9382 C90.2079216,187.758609 90.4936019,189.087354 90.9586697,189.924476 C91.7825042,191.425981 93.3105615,192.269735 95.5428872,192.455762 L95.5428872,181.593159 C92.6727541,181.048366 90.5534052,180.138175 89.1847769,178.86256 C87.8161486,177.586945 87.1318447,175.819714 87.1318447,173.560813 C87.1318447,171.54109 87.8726202,169.720708 89.3541936,168.099615 L89.3541936,168.099615 Z" id="$" fill="#C11313" sketch:type="MSShapeGroup"></path>
        </g>
    </g>
</svg>