<?xml version="1.0" encoding="UTF-8" standalone="no"?>
<svg width="50px" height="50px" viewBox="0 0 50 50" version="1.1" xmlns="http://www.w3.org/2000/svg" xmlns:xlink="http://www.w3.org/1999/xlink" xmlns:sketch="http://www.bohemiancoding.com/sketch/ns">
    <!-- Generator: Sketch 3.3 (11970) - http://www.bohemiancoding.com/sketch -->
    <title>Oval 23 + Shape</title>
    <desc>Created with Sketch.</desc>
    <defs></defs>
    <g id="desktop" stroke="none" stroke-width="1" fill="none" fill-rule="evenodd" sketch:type="MSPage">
        <g id="Desktop@2x" sketch:type="MSArtboardGroup" transform="translate(-66.000000, -3602.000000)">
            <g id="Oval-23-+-Shape" sketch:type="MSLayerGroup" transform="translate(67.000000, 3603.000000)">
                <circle id="Oval-23" stroke="#D3D3D3" fill="#FFFFFF" sketch:type="MSShapeGroup" cx="24" cy="24" r="24"></circle>
                <path d="M19.617435,27.2103825 L25.907025,27.2103825 L25.907025,26.550315 L19.617435,26.550315 L19.617435,27.2103825 L19.617435,27.2103825 Z M19.617435,25.1202075 L25.907025,25.1202075 L25.907025,24.459675 L19.617435,24.459675 L19.617435,25.1202075 L19.617435,25.1202075 Z M19.617435,29.372865 L25.907025,29.372865 L25.907025,28.713495 L19.617435,28.713495 L19.617435,29.372865 L19.617435,29.372865 Z M30.7139625,13.4700975 L29.7435075,13.4700975 L30.1489875,12 L28.8260625,12 L28.4205825,13.4700975 L26.267865,13.4700975 L26.673345,12 L25.3506525,12 L24.94494,13.4700975 L22.547865,13.4700975 L22.95381,12 L21.63135,12 L21.225405,13.4700975 L18.827865,13.4700975 L19.23381,12 L17.91135,12 L17.505405,13.4700975 L14.792595,13.4700975 L14.792595,35.25 L30.8232375,35.25 L30.8232375,31.6562475 L34.70994,31.6562475 L30.7139625,13.4700975 L30.7139625,13.4700975 Z M28.8437325,33.2697975 L16.7723325,33.2697975 L16.7723325,16.890405 L17.8892625,16.890405 L18.2770725,15.4503 L20.680425,15.4503 L20.292615,16.890405 L21.615075,16.890405 L22.002885,15.4503 L24.4062375,15.4503 L24.0184275,16.890405 L25.3408875,16.890405 L25.728465,15.4503 L27.88746,15.4503 L27.49965,16.890405 L28.8432675,16.890405 L28.8432675,33.2697975 L28.8437325,33.2697975 L28.8437325,33.2697975 Z M19.617435,21.0123975 L25.907025,21.0123975 L25.907025,20.3530275 L19.617435,20.3530275 L19.617435,21.0123975 L19.617435,21.0123975 Z M19.617435,23.1030375 L25.907025,23.1030375 L25.907025,22.4436675 L19.617435,22.4436675 L19.617435,23.1030375 L19.617435,23.1030375 Z" id="Shape" fill="#8CBC45" sketch:type="MSShapeGroup"></path>
            </g>
        </g>
    </g>
</svg>