<?xml version="1.0" encoding="UTF-8" standalone="no"?>
<svg width="1024px" height="738px" viewBox="0 0 1024 738" version="1.1" xmlns="http://www.w3.org/2000/svg" xmlns:xlink="http://www.w3.org/1999/xlink" xmlns:sketch="http://www.bohemiancoding.com/sketch/ns">
    <!-- Generator: Sketch 3.3 (11970) - http://www.bohemiancoding.com/sketch -->
    <title>Artboard-1</title>
    <desc>Created with Sketch.</desc>
    <defs></defs>
    <g id="desktop" stroke="none" stroke-width="1" fill="none" fill-rule="evenodd" sketch:type="MSPage">
        <g id="Desktop@2x" sketch:type="MSArtboardGroup" transform="translate(0.000000, -1950.000000)" fill="#FFFFFF">
            <g id="bg-large-leaves" sketch:type="MSLayerGroup" transform="translate(-136.000000, 1882.000000)">
                <g id="Page-1" sketch:type="MSShapeGroup">
                    <g id="Artboard-1" style="opacity: 0.04">
                        <path d="M600.43642,539.854413 C614.311099,508.65968 633.868122,479.331498 659.553541,454.858891 C629.290876,473.306949 602.584326,498.830705 580.957589,528.42551 C559.241584,558.02666 542.378958,591.39757 529.410961,626.109363 C529.302383,626.404969 529.201472,626.703512 529.092799,626.999591 C528.518288,623.693652 527.952013,620.384777 527.458629,617.058 C522.465149,583.633008 521.583646,549.174862 525.519739,514.637913 C528.822441,485.390808 535.664975,456.12978 545.835203,427.611603 C536.8033,448.396189 529.335704,469.818304 523.497356,491.638601 C513.979358,527.228025 508.72953,563.823704 507.301537,600.473559 C506.169366,629.378553 507.418824,658.319917 510.724461,686.983482 C511.611265,694.672651 512.615451,702.346761 513.798267,709.990087 C516.604745,728.056064 520.21974,745.98243 524.668623,763.662442 C526.897656,772.500222 529.330309,781.277763 531.994318,789.956611 C533.567241,795.048405 535.241074,800.182745 536.995466,805.200643 L564.828791,805.200643 L568.273487,805.200643 L575.029973,805.200643 C574.181792,799.655258 573.38416,794.084299 572.692362,788.478486 C570.644893,771.923501 569.241891,755.184958 568.510997,738.396595 C567.068899,704.81949 568.257016,670.98154 573.102727,637.557589 C577.961501,604.160632 586.508634,571.095558 600.43642,539.854413" id="Fill-1"></path>
                        <path d="M518.583558,489.988021 C527.04966,463.325694 537.906479,437.473939 551.016849,412.89222 C530.168431,441.700604 512.750606,473.732999 499.855027,508.132232 C486.797669,542.855107 478.351446,579.891874 474.618595,617.74878 C472.559956,638.510161 471.929973,659.500943 472.55759,680.552152 C450.021329,663.199192 425.069644,649.703319 399.222067,640.78863 C372.856304,631.641226 345.711937,627.173984 319.063795,626.364832 C344.45377,634.568967 368.262208,646.137481 389.05468,660.897897 C409.880851,675.624595 427.610592,693.463539 441.853605,713.233252 C456.108263,733.014994 466.970288,754.687914 474.738817,777.135132 C477.918836,786.319759 480.554825,795.644564 482.691656,804.989071 L491.182843,804.989071 L492.415831,804.989071 L516.22957,804.989071 C515.297801,801.656526 514.393958,798.323963 513.518229,794.956648 C511.163673,785.815021 509.071807,776.63513 507.197194,767.420573 C504.820392,755.729308 502.840039,743.974868 501.166301,732.185573 C500.198275,725.393452 499.308537,718.593658 498.569407,711.779279 C498.228998,708.632177 497.949932,705.479866 497.659789,702.328881 C494.502395,668.146072 494.164448,633.737178 497.082439,599.622849 C500.253843,562.37553 507.311073,525.485193 518.583558,489.988021" id="Fill-3"></path>
                        <path d="M1025.79792,529.291756 C1016.54762,490.301636 1010.16163,450.827984 1006.77375,411.1073 C1005.06348,390.726292 1004.15963,370.276284 1004.36189,349.811527 C1004.60102,329.385748 1006.05741,308.977351 1008.23804,288.807032 C1010.43079,268.605637 1013.44048,248.533289 1017.28714,228.646347 C1019.6458,216.549107 1022.36527,204.526135 1025.47873,192.621676 C970.00271,226.552098 932.59698,287.139428 931.13005,356.628372 C903.761016,344.00757 874.518953,340.072425 847.76144,345.273811 C839.439749,390.584604 855.02758,442.852876 893.060645,481.980998 C930.72184,520.727772 980.89955,536.79334 1024.64019,528.789263 C1024.27043,528.547497 1023.9249,528.258326 1023.61466,527.914376 C1024.34311,528.371045 1025.06314,528.844042 1025.79792,529.291756" id="Fill-1" transform="translate(935.689656, 361.706807) rotate(10.000000) translate(-935.689656, -361.706807) "></path>
                        <path d="M1211.7313,377.040898 C1180.46715,370.775005 1145.70292,377.748813 1114.84329,397.260729 C1114.82802,322.525627 1076.64589,257.295762 1019.87677,222.199703 C1019.47963,222.444629 1019.09301,222.70641 1018.69744,222.956077 C1018.3872,224.827523 1018.06432,226.696335 1017.77515,228.572521 C1016.04803,239.746416 1014.63746,250.967189 1013.50238,262.207451 C1011.45606,282.750163 1010.23406,303.359768 1009.80057,323.948305 C1009.35602,344.56265 1009.72261,365.054797 1011.04047,385.48637 C1012.36887,405.878438 1014.73965,426.201507 1017.86206,446.378146 C1024.15271,486.723523 1033.38932,526.535331 1045.29483,565.180975 C1056.45925,601.118737 1069.88646,636.115772 1086.85062,668.464973 L1111.54443,653.566622 C1093.88026,624.879724 1079.05934,594.455168 1066.84042,562.420948 C1102.01233,561.014598 1138.7486,544.58243 1167.81263,513.748611 C1204.68902,474.62049 1219.80543,422.352217 1211.7313,377.040898" id="Fill-3" transform="translate(1111.733941, 445.332338) rotate(10.000000) translate(-1111.733941, -445.332338) "></path>
                        <path d="M231.857258,144.023925 C232.123658,121.891199 233.741981,99.7761664 236.165765,77.920256 C238.604919,56.0295296 241.951427,34.2792089 246.228627,12.7297937 C248.849935,-0.378729811 251.874258,-13.406777 255.33575,-26.3058336 C192.404442,11.2058787 150.357073,78.7809541 150.357073,155.996647 C150.357073,233.3556 192.562688,301.039119 255.69095,338.508024 C245.406088,296.258477 238.305504,253.484977 234.539473,210.444364 C232.637104,188.35901 231.632411,166.200029 231.857258,144.023925" id="Fill-1" transform="translate(203.024011, 156.101095) rotate(51.000000) translate(-203.024011, -156.101095) "></path>
                        <path d="M223.014474,379.107229 C262.61415,339.402106 287.121243,284.579974 287.121243,223.988083 C287.121243,142.988856 243.332597,72.2877576 178.225689,34.250951 C177.770304,34.5169227 177.327443,34.8005878 176.873766,35.0705548 C176.518566,37.099017 176.148566,39.1240548 175.816135,41.1565123 C173.83635,53.2645029 172.218027,65.4232906 170.917335,77.603767 C168.570966,99.8637718 167.16952,122.196262 166.671443,144.505352 C166.161412,166.842979 166.582643,189.048191 168.09395,211.188337 C169.616643,233.285106 172.335289,255.307106 175.916889,277.169866 C183.129612,320.888536 193.719581,364.02846 207.372012,405.904734 C220.176289,444.846757 235.570566,482.769413 255.024597,517.822885 L283.337566,501.678517 C261.893504,468.765375 244.057227,433.767837 229.597627,396.794918 C227.307043,390.945823 225.134289,385.037941 223.014474,379.107229" id="Fill-3" transform="translate(226.793169, 276.036918) rotate(51.000000) translate(-226.793169, -276.036918) "></path>
                    </g>
                </g>
            </g>
        </g>
    </g>
</svg>
