<?xml version="1.0" encoding="UTF-8" standalone="no"?>
<svg width="53px" height="53px" viewBox="0 0 53 53" version="1.1" xmlns="http://www.w3.org/2000/svg" xmlns:xlink="http://www.w3.org/1999/xlink" xmlns:sketch="http://www.bohemiancoding.com/sketch/ns">
    <!-- Generator: Sketch 3.3 (11970) - http://www.bohemiancoding.com/sketch -->
    <title>icon-cleaning + Oval 15 Copy</title>
    <desc>Created with Sketch.</desc>
    <defs></defs>
    <g id="Page-1" stroke="none" stroke-width="1" fill="none" fill-rule="evenodd" sketch:type="MSPage">
        <g id="Landing-iPhone-5" sketch:type="MSArtboardGroup" transform="translate(-25.000000, -836.000000)">
            <g id="icon-cleaning-+-Oval-15-Copy" sketch:type="MSLayerGroup" transform="translate(25.000000, 836.000000)">
                <circle id="Oval-15-Copy" fill="#F6F9F6" sketch:type="MSShapeGroup" cx="26.5" cy="26.5" r="26.5"></circle>
                <g id="icon-cleaning" transform="translate(9.000000, 11.000000)" fill="#8CBC45" sketch:type="MSShapeGroup">
                    <g id="Page-1">
                        <g id="Artboard-1-Copy-2">
                            <g id="Shape">
                                <path d="M17.2333333,13.7712208 C17.0866666,13.7712208 16.9766667,13.7373849 16.8666667,13.669713 C16.3533333,13.6358771 15.62,13.5682053 14.7766666,13.4666975 C12.0633333,13.1621742 7.99333335,12.6884713 3.96,13.3313538 C3.55666666,13.3990257 3.19,13.1283383 3.11666667,12.789979 C3.04333333,12.4177839 3.33666667,12.0794246 3.70333333,12.0117527 C7.92,11.3688702 12.1366666,11.8425732 14.9233333,12.1470965 C15.9133333,12.2486042 16.6833333,12.350112 17.1233333,12.350112 C17.2333333,12.350112 17.3433333,12.383948 17.4533333,12.4177839 C18.26,12.3162761 18.8466667,11.6733936 18.8466667,10.8951673 C18.8466667,10.0492692 18.1133333,9.37255074 17.1966667,9.37255074 C16.61,9.37255074 16.0966666,9.64323812 15.8033333,10.0831051 C15.5833333,10.3876285 15.1433333,10.4891363 14.7766666,10.2861207 C14.4466666,10.0831051 14.3366667,9.6770741 14.5566667,9.33871484 C15.1433333,8.49281678 16.1333333,7.9852779 17.1966667,7.9852779 C18.92,7.9852779 20.3133333,9.27104298 20.3133333,10.8613314 C20.3133333,12.4516198 18.9566667,13.7712208 17.2333333,13.7712208 L17.2333333,13.7712208 Z M15.2166667,20.5384055 C14.3366667,20.5384055 13.53,20.9444365 13.0533333,21.6549909 C12.8333333,21.9595142 12.9433333,22.3993812 13.2733333,22.6023968 C13.6033333,22.8054124 14.08,22.7039045 14.3,22.3993812 C14.52,22.094858 14.85,21.9256783 15.2166667,21.9256783 C15.84,21.9256783 16.3166667,22.3655454 16.3166667,22.940756 C16.3166667,23.5159667 15.84,23.9558337 15.2166667,23.9558337 L15.18,23.9558337 L15.1433333,23.9558337 C14.7766666,23.9558337 14.1166666,23.8543259 13.31,23.7189823 C10.9633333,23.2791153 6.96666667,22.6023968 3.3,23.5836386 C2.89666666,23.6851463 2.67666667,24.0573415 2.78666667,24.4295366 C2.89666666,24.8017318 3.3,25.0047474 3.70333333,24.9032396 C7.04,24.0235056 10.67,24.6325522 13.0533333,25.0385833 C13.97,25.2077629 14.6666667,25.3092706 15.1433333,25.3092706 L15.18,25.3092706 L15.2166667,25.3092706 C16.6466667,25.3092706 17.7833333,24.2603571 17.7833333,22.940756 C17.7833333,21.621155 16.6466667,20.5384055 15.2166667,20.5384055 L15.2166667,20.5384055 Z M27.8666667,10.7936595 C26.1433333,10.7936595 24.6033333,11.6057217 23.6866666,12.9253227 C23.4666667,13.229846 23.5766667,13.669713 23.9066667,13.8727286 C24.2366667,14.0757441 24.7133333,13.9742363 24.9333333,13.669713 C25.5933333,12.7223072 26.6933333,12.1809324 27.8666667,12.1809324 C29.7733333,12.1809324 31.35,13.6358771 31.35,15.3953451 C31.35,17.1548131 29.7733333,18.6097578 27.8666667,18.6097578 L27.7933333,18.6097578 L27.72,18.6097578 C26.84,18.6097578 25.3,18.3390704 23.3566666,18.0345471 C17.9666667,17.0871413 8.91,15.5645248 0.696666667,17.7976957 C0.293333333,17.8992034 0.0733333333,18.2713986 0.183333333,18.6435938 C0.293333333,19.0157889 0.696666667,19.2188045 1.1,19.1172967 C8.98333335,16.9856335 17.4533333,18.4405782 23.1,19.3879841 C25.1166667,19.7263433 26.6933333,19.9970307 27.72,19.9970307 L27.7933333,19.9970307 L27.8666667,19.9970307 C30.6166666,19.9970307 32.8166667,17.9330394 32.8166667,15.429181 C32.8166667,12.9253227 30.58,10.7936595 27.8666667,10.7936595 L27.8666667,10.7936595 Z M28.3433333,7.20705167 C28.0133333,6.49649728 27.61,5.88745066 27.2066667,5.34607589 C27.72,4.56784965 27.6466666,3.4851001 27.0233333,2.43618648 C26.3266666,1.25192916 24.7133333,0 22.2933333,0 C20.35,0 18.3333333,0.812062163 16.2433334,2.40235056 C15.9866667,2.60536609 15.9133333,2.97756125 16.06,3.24824864 C16.2433334,3.51893603 16.61,3.65427972 16.94,3.55277195 C16.94,3.55277195 17.2333333,3.45126418 17.6733333,3.45126418 C18.5533333,3.45126418 19.8,3.78962341 20.7533333,5.44758366 C21.3766666,6.5303332 22.4033333,7.13937983 23.6133333,7.13937983 C24.53,7.13937983 25.4466667,6.80102059 26.1066667,6.36115359 C26.4,6.76718466 26.6566666,7.20705167 26.9133333,7.74842641 C27.0233333,8.0191138 27.3166666,8.15445753 27.5733333,8.15445753 C27.6833333,8.15445753 27.7566667,8.12062163 27.8666667,8.08678566 C28.3433333,7.91760604 28.5266667,7.5454109 28.3433333,7.20705167 L28.3433333,7.20705167 Z M23.6866666,5.78594289 C22.99,5.78594289 22.4766667,5.48141958 22.11,4.80470111 C21.1933333,3.21441272 19.9833333,2.53769425 18.9933333,2.26700686 C20.1666667,1.65796024 21.3033333,1.31960101 22.33,1.31960101 C24.09,1.31960101 25.2633333,2.23317094 25.7766667,3.07906903 C25.9966666,3.41742826 26.1066667,3.78962341 26.1066667,4.09414673 C24.7866667,2.94372533 23.5766667,2.63920202 23.5033333,2.60536609 C23.1,2.50385833 22.6966666,2.70687387 22.5866667,3.07906903 C22.4766667,3.45126418 22.6966666,3.82345934 23.1,3.92496711 C23.1,3.92496711 24.1633333,4.1956545 25.2633333,5.24456812 C24.8233333,5.54909143 24.2733333,5.78594289 23.6866666,5.78594289 L23.6866666,5.78594289 Z M30.03,27.2040824 C29.8833333,26.9672309 29.59,26.7980513 29.2966666,26.8318872 C28.8566667,26.8657231 28.3433333,26.7980513 27.9033333,26.7303795 C29.1133333,24.1250133 27.5366667,21.8580065 27.4633333,21.7564987 C27.28,21.5196472 26.95,21.3843036 26.62,21.4858113 C26.29,21.5873191 26.1066667,21.8580065 26.1066667,22.1625298 C26.1066667,22.6700686 25.3366666,23.4482949 24.5666667,24.0573415 C23.9433333,22.7715764 22.5133333,22.3317094 22.44,22.2978735 C22.1833333,22.2302016 21.89,22.2640376 21.7066666,22.4332171 C21.5233333,22.6023968 21.4133333,22.8730842 21.4866667,23.1099356 C21.7066666,23.8204901 21.2666667,24.4633726 20.8266667,25.140091 C20.6433333,25.4107784 20.4966667,25.6814658 20.35,25.9521532 C19.91,26.8657231 20.02,27.8808009 20.6433333,28.8282067 C20.0566666,28.9297144 19.36,28.8958786 18.6266667,28.7266989 C18.2233333,28.6251912 17.82,28.8282067 17.71,29.2004018 C17.6,29.572597 17.82,29.9447921 18.2233333,30.0462999 C18.81,30.2154795 19.3966666,30.2831514 19.91,30.2831514 C20.5333333,30.2831514 21.1566667,30.1816436 21.67,30.012464 C22.4033333,30.6215106 23.2466667,30.9260339 24.2,30.9260339 C27.0233333,30.9260339 29.7733333,28.1514883 29.8833333,28.0499804 C30.1033333,27.779293 30.14,27.4747697 30.03,27.2040824 L30.03,27.2040824 Z M24.2366667,29.5049251 C23.87,29.5049251 23.54,29.4372533 23.2466667,29.3019096 C23.9433333,28.8620426 24.4933333,28.3883397 24.8233333,27.9823086 C25.0433333,27.6777853 24.97,27.2717542 24.64,27.0349027 C24.31,26.8318872 23.87,26.8995591 23.6133333,27.2040824 C23.6133333,27.2040824 23.0633333,27.8808009 22.11,28.3545038 C21.7433333,27.8808009 21.4133333,27.2040824 21.7433333,26.493528 C21.8533333,26.2905124 21.9633333,26.0874969 22.1466667,25.8506454 C22.44,25.4107784 22.8066667,24.8355677 22.9533333,24.1926852 C23.21,24.4295366 23.3933333,24.8017318 23.43,25.2415988 C23.43,25.4784503 23.6133333,25.6814658 23.8333333,25.8168095 C24.0533333,25.9183173 24.3466666,25.9183173 24.5666667,25.7829736 C24.8966667,25.579958 26.07,24.8355677 26.84,23.9219978 C27.0233333,24.700224 26.9866666,25.7829736 26.2533333,26.8318872 C26.1433333,27.0010668 26.1066667,27.2379183 26.18,27.4070979 C26.2533333,27.6101135 26.4366667,27.7454571 26.62,27.813129 C26.6566666,27.813129 27.0966667,27.9484727 27.6833333,28.0838164 C26.73,28.7605348 25.4466667,29.5049251 24.2366667,29.5049251 L24.2366667,29.5049251 L24.2366667,29.5049251 Z"></path>
                            </g>
                        </g>
                    </g>
                </g>
            </g>
        </g>
    </g>
</svg>