<?xml version="1.0" encoding="UTF-8" standalone="no"?>
<svg width="64px" height="65px" viewBox="0 0 64 65" version="1.1" xmlns="http://www.w3.org/2000/svg" xmlns:xlink="http://www.w3.org/1999/xlink" xmlns:sketch="http://www.bohemiancoding.com/sketch/ns">
    <!-- Generator: Sketch 3.3 (11970) - http://www.bohemiancoding.com/sketch -->
    <title>Oval 1 Copy + Group</title>
    <desc>Created with Sketch.</desc>
    <defs></defs>
    <g id="desktop" stroke="none" stroke-width="1" fill="none" fill-rule="evenodd" sketch:type="MSPage">
        <g id="Desktop@2x" sketch:type="MSArtboardGroup" transform="translate(-89.000000, -4412.000000)">
            <g id="Group-Copy-3" sketch:type="MSLayerGroup" transform="translate(89.000000, 3982.395000)">
                <g id="Oval-1-Copy-+-Group" transform="translate(0.000000, 430.000000)" sketch:type="MSShapeGroup">
                    <circle id="Oval-1-Copy" fill="#FFFFFF" cx="32" cy="32" r="32"></circle>
                    <g id="Group" transform="translate(14.000000, 19.000000)" fill="#5AA829">
                        <path d="M35.6094578,0.164021164 C18.9736,0.164021164 17.6021333,10.7781587 17.5251733,16.7262222 C15.9932089,12.4118095 11.7268622,8.61242328 0.253902222,9.18518519 C0.253902222,9.18518519 0.253902222,23.1269841 14.23168,23.1269841 C14.23168,23.1269841 15.1032356,18.6164021 8.95498667,14.1058201 C8.95498667,14.1058201 16.6983467,15.7460317 16.6983467,24.7671958 L16.6983467,25.5873016 L16.6983467,28.047619 C16.6983467,28.9523598 17.4337422,29.6878307 18.3427911,29.6878307 C19.2498667,29.6878307 19.9872356,28.9523598 19.9872356,28.047619 L19.9872356,25.5873016 L19.9872356,23.9470899 L19.9872356,19.8465608 C19.9872356,8.36507937 28.2094578,5.9047619 28.2094578,5.9047619 C22.4539022,11.6455026 22.4539022,17.3862434 22.4539022,17.3862434 C36.43168,17.3862434 35.6094578,0.164021164 35.6094578,0.164021164 L35.6094578,0.164021164 Z" id="Shape"></path>
                    </g>
                </g>
            </g>
        </g>
    </g>
</svg>