<?xml version="1.0" encoding="UTF-8" standalone="no"?>
<svg width="82px" height="82px" viewBox="0 0 82 82" version="1.1" xmlns="http://www.w3.org/2000/svg" xmlns:xlink="http://www.w3.org/1999/xlink" xmlns:sketch="http://www.bohemiancoding.com/sketch/ns">
    <!-- Generator: Sketch 3.3.1 (12002) - http://www.bohemiancoding.com/sketch -->
    <title>icon-drought-news copy</title>
    <desc>Created with Sketch.</desc>
    <defs></defs>
    <g id="Page-1" stroke="none" stroke-width="1" fill="none" fill-rule="evenodd" sketch:type="MSPage">
        <g id="Artboard-2" sketch:type="MSArtboardGroup" transform="translate(-54.000000, -464.000000)">
            <g id="ezHome-Logomark.ai" sketch:type="MSLayerGroup" transform="translate(103.471021, 506.349789) rotate(-90.000000) translate(-103.471021, -506.349789) translate(75.244082, 469.820810)">
                <path d="M39.7354026,25.3678448 C42.0457776,25.6808871 44.3287281,26.135101 46.5693843,26.7239647 C47.1560342,26.8799139 47.7403779,27.0448109 48.3217145,27.2176041 C48.2760809,26.973441 48.1892324,26.7029329 48.0000196,26.4276741 L38.3751502,12.8443086 C37.8142366,12.0530134 36.8064796,11.715886 35.8827576,12.0098705 C34.9587036,12.3039011 34.3315029,13.1621384 34.3315029,14.1315031 L34.3315029,15.0230962 L22.0149088,15.0230962 C20.784777,15.0230962 19.7879879,16.0202174 19.7879879,17.2497312 L19.7879879,26.5231753 C21.7301489,25.9981542 23.6971421,25.5937987 25.673775,25.3255505 C30.3765767,24.681552 35.116304,24.7417234 39.7354026,25.3678448" id="Fill-1" fill="#8BBE3C" sketch:type="MSShapeGroup"></path>
                <path d="M22.0149088,40.4061522 L34.3314936,40.4061522 L34.3314936,41.2983079 C34.3314936,42.2676727 34.9586944,43.12591 35.8827484,43.4202265 C36.8064796,43.7142571 37.8142274,43.3767976 38.3751409,42.5857884 L48.0000104,29.0023768 C48.2055044,28.7120175 48.4213943,28.2964635 48.3973092,27.8663809 L47.9042325,27.678764 C47.7039596,27.642401 47.5035022,27.6104566 47.3029987,27.5760216 C47.0098629,27.5259142 46.7169115,27.4718587 46.423213,27.4256624 C44.1626503,27.076783 41.8873285,26.8664923 39.6158164,26.7964415 C35.0743326,26.6559157 30.5417965,27.0809709 26.204958,28.143337 C21.8678889,29.199541 17.7379557,30.9047802 14.0107361,33.2017427 C10.8110189,35.1637548 7.91658344,37.558709 5.35000201,40.2568815 L8.24669749,42.8915341 C10.3980108,40.1311701 12.9489789,37.6575494 15.8372496,35.5675384 C17.0936805,34.6583911 18.4162048,33.8273015 19.7879879,33.0673327 L19.7879879,38.1792312 C19.7879879,39.409031 20.784777,40.4061522 22.0149088,40.4061522" id="Fill-3" fill="#007A3B" sketch:type="MSShapeGroup"></path>
            </g>
            <circle id="Oval-1-Copy-3" stroke="#8BBE3D" stroke-width="2" sketch:type="MSShapeGroup" cx="94.573766" cy="505.304" r="39.5"></circle>
        </g>
    </g>
</svg>