<?xml version="1.0" encoding="UTF-8" standalone="no"?>
<svg width="53px" height="53px" viewBox="0 0 53 53" version="1.1" xmlns="http://www.w3.org/2000/svg" xmlns:xlink="http://www.w3.org/1999/xlink" xmlns:sketch="http://www.bohemiancoding.com/sketch/ns">
    <!-- Generator: Sketch 3.3 (11970) - http://www.bohemiancoding.com/sketch -->
    <title>icon-hedging + Oval 15 Copy 2</title>
    <desc>Created with Sketch.</desc>
    <defs></defs>
    <g id="Page-1" stroke="none" stroke-width="1" fill="none" fill-rule="evenodd" sketch:type="MSPage">
        <g id="Landing-iPhone-5" sketch:type="MSArtboardGroup" transform="translate(-25.000000, -920.000000)">
            <g id="icon-hedging-+-Oval-15-Copy-2" sketch:type="MSLayerGroup" transform="translate(25.000000, 920.000000)">
                <circle id="Oval-15-Copy-2" fill="#F6F9F6" sketch:type="MSShapeGroup" cx="26.5" cy="26.5" r="26.5"></circle>
                <g id="icon-hedging" transform="translate(11.000000, 15.000000)" stroke-width="2" stroke="#8CBC45" sketch:type="MSShapeGroup">
                    <g id="Page-1">
                        <g id="Artboard-1-Copy-2">
                            <g id="Oval-1-Copy-8">
                                <path d="M13.376551,21.993 L12.2847731,19.2696437 C13.8215013,19.0801773 15.1874079,18.3336028 16.1775623,17.2364519 C17.2604956,18.1192534 18.6393043,18.648 20.1406512,18.648 C20.2336043,18.648 20.3260877,18.6459732 20.4180603,18.641961 L20.4180603,18.641961 L17.8251332,21.993 L13.376551,21.993 L13.376551,21.993 Z M11.2287117,21.993 L10.0910641,19.1552248 C8.29596175,18.7389089 6.79362177,17.550352 5.94687428,15.955219 L5.94687428,15.955219 C5.81162173,15.9663336 5.67483955,15.972 5.53674419,15.972 C2.78713676,15.972 0.558139535,13.7255888 0.558139535,10.9545 C0.558139535,8.18341125 2.78713676,5.937 5.53674419,5.937 C6.21316149,5.937 6.85807226,6.0729494 7.44604227,6.31921529 C8.30581031,3.01919219 11.2859105,0.585 14.8301395,0.585 C16.8766337,0.585 18.7350423,1.3965819 20.1057715,2.71781148 L20.1057715,2.71781148 C20.8815351,2.21480624 21.8049077,1.923 22.795907,1.923 C24.9834788,1.923 26.84152,3.34491147 27.5097081,5.3216908 L27.5097081,5.3216908 C29.912801,5.67800441 31.7573953,7.76465528 31.7573953,10.2855 C31.7573953,13.0565887 29.5283981,15.303 26.7787907,15.303 C26.4267142,15.303 26.0831735,15.2661682 25.7517552,15.1961195 C25.2337112,16.2108712 24.4526089,17.0668789 23.4992533,17.6726283 L20.1562876,21.993 L24.781863,21.993 C25.3348142,21.993 25.7830698,22.4384183 25.7830698,22.9965 C25.7830698,23.5507177 25.3392074,24 24.781863,24 L6.86985791,24 C6.31690669,24 5.86865116,23.5545817 5.86865116,22.9965 C5.86865116,22.4422823 6.31251359,21.993 6.86985791,21.993 L11.2287117,21.993 L11.2287117,21.993 Z" id="Shape"></path>
                            </g>
                        </g>
                    </g>
                </g>
            </g>
        </g>
    </g>
</svg>