<?xml version="1.0" encoding="UTF-8" standalone="no"?>
<svg width="50px" height="50px" viewBox="0 0 50 50" version="1.1" xmlns="http://www.w3.org/2000/svg" xmlns:xlink="http://www.w3.org/1999/xlink" xmlns:sketch="http://www.bohemiancoding.com/sketch/ns">
    <!-- Generator: Sketch 3.3 (11970) - http://www.bohemiancoding.com/sketch -->
    <title>Oval 23 Copy + Shape</title>
    <desc>Created with Sketch.</desc>
    <defs></defs>
    <g id="desktop" stroke="none" stroke-width="1" fill="none" fill-rule="evenodd" sketch:type="MSPage">
        <g id="Desktop@2x" sketch:type="MSArtboardGroup" transform="translate(-386.000000, -3600.000000)">
            <g id="Oval-23-Copy-+-Shape" sketch:type="MSLayerGroup" transform="translate(387.000000, 3601.000000)">
                <g sketch:type="MSShapeGroup">
                    <circle id="Oval-23-Copy" stroke="#D3D3D3" fill="#FFFFFF" cx="24" cy="24" r="24"></circle>
                    <path d="M33.525,21.1125 C32.5125,17.175 29.025,14.25 24.75,14.25 C21.375,14.25 18.45,16.05 16.875,18.8625 C13.725,19.425 11.25,22.125 11.25,25.5 C11.25,29.2125 14.2875,32.25 18,32.25 L32.625,32.25 C35.775,32.25 38.25,29.775 38.25,26.625 C38.25,23.8125 36.225,21.45 33.525,21.1125 L33.525,21.1125 Z M22.8375,28.875 L19.125,25.1625 L20.25,24.0375 L22.8375,26.625 L29.25,20.2125 L30.375,21.3375 L22.8375,28.875 L22.8375,28.875 Z" id="Shape" fill="#8CBC45"></path>
                </g>
            </g>
        </g>
    </g>
</svg>