<?xml version="1.0" encoding="UTF-8" standalone="no"?>
<svg width="36px" height="32px" viewBox="0 0 36 32" version="1.1" xmlns="http://www.w3.org/2000/svg" xmlns:xlink="http://www.w3.org/1999/xlink" xmlns:sketch="http://www.bohemiancoding.com/sketch/ns">
    <!-- Generator: Sketch 3.3.2 (12043) - http://www.bohemiancoding.com/sketch -->
    <title>Slice 2</title>
    <desc>Created with Sketch.</desc>
    <defs></defs>
    <g id="Page-1" stroke="none" stroke-width="1" fill="none" fill-rule="evenodd" sketch:type="MSPage">
        <circle id="Oval-1-Copy-24" stroke="#D2D2D2" sketch:type="MSShapeGroup" cx="15.5" cy="14.0825" r="39"></circle>
        <path d="M34.6511472,26.14965 C30.308371,25.4817372 29.9811755,24.843731 29.9811755,24.843731 C30.8735268,19.4505846 28.1072379,12.6219242 23.5760764,8.92348179 C17.5576628,4.00884004 8.39618971,7.57768739 1.26729452,0.101051881 C-0.398427858,-1.64349641 0.57324353,19.6698992 9.49675628,27.7446656 C16.0208356,33.6462232 23.7049716,31.831893 25.8168696,30.8649148 C27.7304673,29.9876562 29.0689942,28.3826718 29.0689942,28.3826718 C32.5491642,29.4593073 34.2743767,29.3994942 34.2743767,29.3994942 C35.4939234,29.549027 36.1086543,26.3689647 34.6511472,26.14965 L34.6511472,26.14965 Z M26.6993059,26.5085285 C15.2672945,23.1091516 6.67097724,11.1764413 6.67097724,11.1764413 C6.67097724,11.1764413 14.216303,20.1284662 27.512337,24.4848525 C27.532167,25.1627341 27.1355665,26.1297123 26.6993059,26.5085285 L26.6993059,26.5085285 Z" id="Shape" fill="#8CBC45" sketch:type="MSShapeGroup"></path>
    </g>
</svg>