<?xml version="1.0" encoding="UTF-8" standalone="no"?>
<svg width="123px" height="121px" viewBox="0 0 123 121" version="1.1" xmlns="http://www.w3.org/2000/svg" xmlns:xlink="http://www.w3.org/1999/xlink" xmlns:sketch="http://www.bohemiancoding.com/sketch/ns">
    <!-- Generator: Sketch 3.4.3 (16044) - http://www.bohemiancoding.com/sketch -->
    <title>♡</title>
    <desc>Created with Sketch.</desc>
    <defs></defs>
    <g id="Page-1" stroke="none" stroke-width="1" fill="none" fill-rule="evenodd" sketch:type="MSPage">
        <path d="M60.8888889,92.8590865 C67.96,85.9490451 71.9888889,81.7881599 76.5933333,76.661355 C80.8688889,71.8317562 84.8155556,66.8535543 87.3644444,63.1384782 C92.2155556,56.3027383 93.7777778,52.2161547 93.7777778,45.9005254 C93.7777778,36.5385338 86.3777778,30 76.84,30 C69.9333333,30 64.5888889,32.8234578 60.8888889,38.6932779 C57.1888889,32.8234578 51.8444444,30 44.9377778,30 C35.4,30 28,36.5385338 28,45.9005254 C28,52.2161547 29.5622222,56.2284368 34.4133333,63.1384782 C37.0444444,66.9278558 40.0044444,70.7172334 45.2666667,76.661355 C50.6933333,82.7540797 53.4888889,85.651839 60.8888889,92.8590865 L60.8888889,92.8590865 Z M60.8888889,89.069709 C54.8866667,83.0512858 50.94,78.9647022 47.4866667,75.1010231 C43.0466667,70.1228212 39.4288889,65.5904284 36.7977778,61.7267494 C32.44,55.4111201 30.8777778,51.1016319 30.8777778,45.974827 C30.8777778,38.1731673 36.7977778,32.6005532 44.8555556,32.6005532 C51.1866667,32.6005532 56.2022222,35.9441217 58.9977778,40.9966251 C59.6555556,42.2597509 60.1488889,42.6312585 60.8888889,42.6312585 C61.6288889,42.6312585 62.04,42.2597509 62.78,40.9966251 C65.5755556,35.9441217 70.5911111,32.6005532 76.9222222,32.6005532 C84.98,32.6005532 90.9,38.1731673 90.9,45.974827 C90.9,51.0273304 89.2555556,55.6340247 84.98,61.8010509 C82.5133333,65.4418254 78.4844444,70.4200273 74.3733333,75.1010231 C70.92,78.8904006 67.4666667,82.5311752 60.8888889,89.069709 Z M59,2.00010618 C59,0.895478039 59.8877296,0 61,0 C62.1045695,0 63,0.890058413 63,2.00010618 L63,14.9998938 C63,16.104522 62.1122704,17 61,17 C59.8954305,17 59,16.1099416 59,14.9998938 L59,2.00010618 Z M59,106.000106 C59,104.895478 59.8877296,104 61,104 C62.1045695,104 63,104.890058 63,106.000106 L63,118.999894 C63,120.104522 62.1122704,121 61,121 C59.8954305,121 59,120.109942 59,118.999894 L59,106.000106 Z M106,61 C106,59.8954305 106.890058,59 108.000106,59 L120.999894,59 C122.104522,59 123,59.8877296 123,61 C123,62.1045695 122.109942,63 120.999894,63 L108.000106,63 C106.895478,63 106,62.1122704 106,61 Z M0,61 C0,59.8954305 0.890058413,59 2.00010618,59 L14.9998938,59 C16.104522,59 17,59.8877296 17,61 C17,62.1045695 16.1099416,63 14.9998938,63 L2.00010618,63 C0.895478039,63 0,62.1122704 0,61 Z M12.4142136,15.4142136 C13.1952621,14.633165 14.4577935,14.6293663 15.2427158,15.4142886 L24.4349538,24.6065266 C25.2160438,25.3876167 25.2215228,26.6485349 24.4350288,27.4350288 C23.6539803,28.2160774 22.3914489,28.2198761 21.6065266,27.4349538 L12.4142886,18.2427158 C11.6331986,17.4616257 11.6277197,16.2007075 12.4142136,15.4142136 Z M92.4142136,90.4142136 C93.1952621,89.633165 94.4577935,89.6293663 95.2427158,90.4142886 L104.434954,99.6065266 C105.216044,100.387617 105.221523,101.648535 104.435029,102.435029 C103.65398,103.216077 102.391449,103.219876 101.606527,102.434954 L92.4142886,93.2427158 C91.6331986,92.4616257 91.6277197,91.2007075 92.4142136,90.4142136 Z M18.4142136,99.4350288 C17.633165,98.6539803 17.6293663,97.3914489 18.4142886,96.6065266 L27.6065266,87.4142886 C28.3876167,86.6331986 29.6485349,86.6277197 30.4350288,87.4142136 C31.2160774,88.1952621 31.2198761,89.4577935 30.4349538,90.2427158 L21.2427158,99.4349538 C20.4616257,100.216044 19.2007075,100.221523 18.4142136,99.4350288 Z M98.4142136,27.4350288 C97.633165,26.6539803 97.6293663,25.3914489 98.4142886,24.6065266 L107.606527,15.4142886 C108.387617,14.6331986 109.648535,14.6277197 110.435029,15.4142136 C111.216077,16.1952621 111.219876,17.4577935 110.434954,18.2427158 L101.242716,27.4349538 C100.461626,28.2160438 99.2007075,28.2215228 98.4142136,27.4350288 Z" id="♡" fill="#FF7878" sketch:type="MSShapeGroup"></path>
    </g>
</svg>