<?xml version="1.0" encoding="UTF-8" standalone="no"?>
<svg width="49px" height="50px" viewBox="0 0 49 50" version="1.1" xmlns="http://www.w3.org/2000/svg" xmlns:xlink="http://www.w3.org/1999/xlink" xmlns:sketch="http://www.bohemiancoding.com/sketch/ns">
    <!-- Generator: Sketch 3.3 (11970) - http://www.bohemiancoding.com/sketch -->
    <title>Oval 23 Copy 2 + Shape Copy</title>
    <desc>Created with Sketch.</desc>
    <defs></defs>
    <g id="desktop" stroke="none" stroke-width="1" fill="none" fill-rule="evenodd" sketch:type="MSPage">
        <g id="Desktop@2x" sketch:type="MSArtboardGroup" transform="translate(-716.000000, -1552.000000)">
            <g id="Oval-23-Copy-2-+-Shape-Copy" sketch:type="MSLayerGroup" transform="translate(716.000000, 1553.000000)">
                <circle id="Oval-23-Copy-2" stroke="#D3D3D3" fill="#FFFFFF" sketch:type="MSShapeGroup" cx="24.1846154" cy="24" r="23.6307692"></circle>
                <path d="M35.6817671,30.998373 C33.1091682,30.602711 32.9153423,30.2247652 32.9153423,30.2247652 C33.4439585,27.029942 31.8052483,22.9847407 29.1210527,20.793836 C25.55583,17.8824721 20.1287037,19.9966065 15.9056476,15.567554 C14.9188974,14.5341084 15.4945017,27.1598608 20.7806637,31.9432376 C24.6454355,35.4392363 29.1974083,34.3644529 30.4484667,33.7916288 C31.5820547,33.2719533 32.374979,32.3211834 32.374979,32.3211834 C34.4365822,32.9589669 35.4585736,32.9235345 35.4585736,32.9235345 C36.1810157,33.0121156 36.5451735,31.1282919 35.6817671,30.998373 L35.6817671,30.998373 L35.6817671,30.998373 Z M30.9712094,31.2109675 C24.1990484,29.197225 19.1067124,22.1284572 19.1067124,22.1284572 C19.1067124,22.1284572 23.576456,27.4315094 31.4528374,30.0121707 C31.4645845,30.4137381 31.229644,30.9865622 30.9712094,31.2109675 L30.9712094,31.2109675 L30.9712094,31.2109675 Z" id="Shape-Copy" fill="#8CBC45" sketch:type="MSShapeGroup"></path>
            </g>
        </g>
    </g>
</svg>