<?xml version="1.0" encoding="UTF-8" standalone="no"?>
<svg width="555px" height="66px" viewBox="0 0 555 66" version="1.1" xmlns="http://www.w3.org/2000/svg" xmlns:xlink="http://www.w3.org/1999/xlink" xmlns:sketch="http://www.bohemiancoding.com/sketch/ns">
    <!-- Generator: Sketch 3.3.3 (12072) - http://www.bohemiancoding.com/sketch -->
    <title>Artboard 4</title>
    <desc>Created with Sketch.</desc>
    <defs></defs>
    <g id="Page-1" stroke="none" stroke-width="1" fill="none" fill-rule="evenodd" sketch:type="MSPage">
        <g id="Artboard-4" sketch:type="MSArtboardGroup" transform="translate(-340.000000, -284.000000)" fill-opacity="0.04" fill="#000000">
            <path d="M456.718951,332.180555 C455.423165,326.718804 454.528614,321.189321 454.054038,315.625232 C453.814463,312.770253 453.687851,309.905608 453.716184,307.038897 C453.749681,304.177646 453.953693,301.31883 454.259157,298.493365 C454.566317,295.663546 454.987916,292.851803 455.526757,290.066033 C455.85716,288.371447 456.238104,286.687265 456.674239,285.019684 C448.903138,289.77267 443.663328,298.259766 443.457841,307.993803 C439.623976,306.225877 435.527736,305.67464 431.779534,306.403252 C430.613828,312.750405 432.797378,320.072164 438.125064,325.553246 C443.400659,330.980909 450.429571,333.23138 456.556775,332.110166 C456.504979,332.076299 456.456577,332.035792 456.413119,331.987611 C456.515161,332.051582 456.616023,332.117839 456.718951,332.180555 Z M484.404871,306.403215 C480.025377,305.525487 475.155592,306.50238 470.832763,309.235617 C470.830624,298.766696 465.482057,289.629272 457.529817,284.713003 C457.474185,284.747312 457.420028,284.783982 457.364616,284.818956 C457.321158,285.081108 457.275928,285.342892 457.235421,285.605709 C456.993485,287.170953 456.795893,288.742763 456.636889,290.317303 C456.35024,293.194934 456.179063,296.081935 456.118339,298.965985 C456.056066,301.85365 456.107419,304.724198 456.292025,307.58626 C456.478107,310.442789 456.810207,313.289652 457.247595,316.116003 C458.128792,321.767599 459.42266,327.344452 461.090388,332.757948 C462.654304,337.792123 464.535193,342.694521 466.911539,347.226009 L470.370657,345.139043 C467.896253,341.120571 465.820133,336.858688 464.108503,332.371322 C469.035397,332.17432 474.181428,329.872496 478.252728,325.553283 C483.418386,320.072201 485.535899,312.750442 484.404871,306.403215 Z M728.206893,330.853958 C729.909197,325.504945 731.990312,320.304524 734.449239,315.290745 C735.714306,312.72016 737.081179,310.19947 738.58193,307.756811 C740.084297,305.321493 741.731568,302.976083 743.448624,300.711512 C745.169376,298.444083 746.978911,296.251089 748.875566,294.140742 C750.031553,292.858368 751.225504,291.610943 752.458211,290.406172 C743.349109,290.477864 734.486538,295.054024 729.297001,303.291889 C726.921287,299.801893 723.694032,297.219672 720.105933,295.913747 C715.837703,300.753937 713.938385,308.15452 715.682137,315.596686 C717.408752,322.966233 722.274627,328.51542 728.104135,330.710096 C728.077179,330.654389 728.056553,330.594739 728.044117,330.531058 C728.098637,330.638447 728.150968,330.747188 728.206893,330.853958 Z M765.21467,323.017768 C761.912775,320.009802 757.235416,318.339038 752.122308,318.455458 C757.512367,309.480739 757.633872,298.893722 753.349538,290.583951 C753.284181,290.584707 753.218873,290.588247 753.153363,290.589686 C752.981093,290.792012 752.807496,290.993109 752.637413,291.197525 C751.623874,292.414594 750.644962,293.660131 749.697721,294.927882 C747.969926,297.246858 746.336282,299.633338 744.798836,302.074176 C743.2582,304.517315 741.823777,307.004304 740.507945,309.552649 C739.196227,312.097012 738.014649,314.708294 736.933886,317.356221 C734.778432,322.654434 733.015201,328.101121 731.656567,333.600337 C730.404312,338.720943 729.491627,343.891848 729.194664,349 L733.234575,348.992698 C733.183262,344.273784 733.598712,339.551356 734.442723,334.823378 C738.767359,337.192052 744.363896,337.869406 750.07824,336.263992 C757.329039,334.226298 762.915087,329.040926 765.21467,323.017768 Z M564.833933,303.778131 C567.000128,298.910506 570.053483,294.334138 574.063639,290.515434 C569.338857,293.394068 565.169276,297.376794 561.792785,301.994765 C558.402357,306.613727 555.769666,311.820922 553.745028,317.237349 C553.728076,317.283475 553.712321,317.33006 553.695354,317.37626 C553.605658,316.860401 553.517248,316.344085 553.440218,315.824975 C552.660607,310.609341 552.522982,305.232493 553.137507,299.84335 C553.653144,295.279633 554.72144,290.713743 556.309275,286.263768 C554.899162,289.506994 553.733278,292.8497 552.821761,296.254538 C551.335756,301.80791 550.516123,307.518298 550.293176,313.237139 C550.116415,317.747473 550.311488,322.263482 550.827583,326.736143 C550.966036,327.935961 551.122815,329.133429 551.307483,330.326093 C551.745647,333.145107 552.310041,335.942336 553.004626,338.701124 C553.352636,340.080171 553.732435,341.449818 554.148356,342.804065 C554.39393,343.598588 554.655258,344.399751 554.929164,345.182743 L559.274664,345.182743 L559.81247,345.182743 L560.867331,345.182743 C560.734908,344.317441 560.610377,343.448149 560.50237,342.573419 C560.182707,339.99018 559.963663,337.378298 559.849551,334.758643 C559.624402,329.519273 559.809898,324.239201 560.566438,319.023729 C561.325018,313.81247 562.659446,308.652997 564.833933,303.778131 Z M552.054801,296.030025 C553.376578,291.869637 555.071608,287.83573 557.118474,284 C553.863499,288.495259 551.144127,293.493592 549.130795,298.861247 C547.092205,304.279402 545.773532,310.058618 545.190737,315.965807 C544.869331,319.205412 544.770974,322.480813 544.868961,325.765642 C541.35047,323.057887 537.454869,320.951992 533.419395,319.560944 C529.30302,318.133584 525.065085,317.436515 520.904622,317.310255 C524.868652,318.590428 528.585763,320.395579 531.832004,322.698793 C535.083506,324.996746 537.851576,327.780334 540.075278,330.865199 C542.300797,333.951941 543.996639,337.333783 545.209507,340.836445 C545.70599,342.269614 546.117536,343.724656 546.45115,345.182773 L547.776843,345.182773 L547.969345,345.182773 L551.687283,345.182773 C551.54181,344.662763 551.400697,344.142749 551.263973,343.617314 C550.896366,342.190855 550.569772,340.758425 550.277096,339.320586 C549.906016,337.496282 549.596832,335.66212 549.335518,333.822519 C549.184385,332.762676 549.045474,331.701637 548.930076,330.638321 C548.87693,330.147248 548.83336,329.655361 548.788062,329.163682 C548.295111,323.829798 548.242349,318.460636 548.697922,313.137438 C549.19306,307.325368 550.294876,301.569002 552.054801,296.030025 Z M814.981775,303.800208 C812.81558,298.932583 809.762224,294.356215 805.752068,290.537511 C810.476851,293.416145 814.646432,297.39887 818.022923,302.016842 C821.413351,306.635804 824.046042,311.842999 826.07068,317.259426 C826.087632,317.305552 826.103387,317.352137 826.120354,317.398337 C826.21005,316.882478 826.29846,316.366162 826.37549,315.847052 C827.155101,310.631417 827.292726,305.25457 826.6782,299.865426 C826.162564,295.30171 825.094267,290.73582 823.506433,286.285845 C824.916546,289.529071 826.08243,292.871777 826.993947,296.276615 C828.479951,301.829987 829.299585,307.540375 829.522531,313.259216 C829.699293,317.76955 829.50422,322.285559 828.988125,326.75822 C828.849672,327.958038 828.692892,329.155505 828.508224,330.34817 C828.070061,333.167184 827.505667,335.964413 826.811082,338.723201 C826.463072,340.102248 826.083272,341.471895 825.667352,342.826142 C825.421778,343.620665 825.160449,344.421827 824.886544,345.20482 L820.541044,345.20482 L820.003238,345.20482 L818.948376,345.20482 C819.080799,344.339518 819.20533,343.470226 819.313338,342.595495 C819.633,340.012256 819.852045,337.400375 819.966157,334.78072 C820.191305,329.54135 820.00581,324.261278 819.249269,319.045806 C818.490689,313.834547 817.156261,308.675074 814.981775,303.800208 Z M827.760906,296.052102 C826.43913,291.891714 824.7441,287.857807 822.697234,284.022077 C825.952209,288.517336 828.671581,293.515669 830.684913,298.883324 C832.723503,304.301479 834.042176,310.080694 834.624971,315.987884 C834.946377,319.227489 835.044734,322.502889 834.946747,325.787719 C838.465238,323.079964 842.360839,320.974069 846.396312,319.583021 C850.512688,318.155661 854.750623,317.458592 858.911085,317.332332 C854.947056,318.612505 851.229945,320.417656 847.983704,322.72087 C844.732201,325.018823 841.964132,327.802411 839.74043,330.887276 C837.514911,333.974018 835.819068,337.35586 834.606201,340.858522 C834.109718,342.291691 833.698172,343.746733 833.364558,345.20485 L832.038864,345.20485 L831.846363,345.20485 L828.128425,345.20485 C828.273898,344.684839 828.415011,344.164826 828.551735,343.639391 C828.919342,342.212932 829.245936,340.780502 829.538611,339.342663 C829.909691,337.518359 830.218876,335.684196 830.480189,333.844595 C830.631323,332.784753 830.770234,331.723714 830.885631,330.660398 C830.938778,330.169325 830.982347,329.677438 831.027646,329.185759 C831.520597,323.851875 831.573359,318.482713 831.117785,313.159515 C830.622647,307.347445 829.520832,301.591079 827.760906,296.052102 Z M366.057528,305.396889 C368.462632,303.49686 370.983938,301.74422 373.547724,300.101056 C376.116599,298.456516 378.749632,296.922099 381.44235,295.505594 C383.082034,294.646035 384.748266,293.836968 386.438807,293.086303 C376.904219,289.566147 365.958777,290.918875 357.649146,297.647881 C349.324099,304.389371 345.7274,314.840904 347.210093,324.916537 C350.858319,320.125128 354.841111,315.631583 359.143958,311.474499 C361.354499,309.344627 363.651385,307.305182 366.057528,305.396889 Z M354.131567,328.550206 C361.863929,329.36216 369.904619,327.22852 376.425266,321.948205 C385.142064,314.889481 388.925207,304.004199 387.330773,293.665616 C387.262367,293.639667 387.193152,293.61661 387.124466,293.591193 C386.87514,293.729645 386.624891,293.866202 386.377125,294.007458 C384.901157,294.849034 383.451301,295.734031 382.02686,296.655185 C379.42635,298.341915 376.900589,300.136903 374.456266,302.027308 C372.007827,303.91891 369.654994,305.899439 367.404393,307.991898 C365.159454,310.081804 363.027042,312.294216 360.987155,314.585848 C356.912444,319.173857 353.195054,324.075775 349.881193,329.197954 C346.809008,333.972926 344.072787,338.938479 342,344.091968 L346.210835,345.739509 C347.879438,340.557852 350.087534,335.583764 352.803202,330.801811 C353.23255,330.044976 353.678518,329.29573 354.131567,328.550206 Z M629.456829,315.146313 C627.875875,312.330087 626.467466,309.417223 625.179992,306.478195 C623.891926,303.533642 622.729042,300.540472 621.698709,297.504623 C621.074425,295.656488 620.507065,293.789048 620.004493,291.905935 C614.769379,301.248519 614.37301,312.862622 620.006307,322.619777 C625.650054,332.395034 635.934303,337.86095 646.664601,337.978687 C642.279442,333.392125 638.259424,328.506471 634.642322,323.34319 C632.790096,320.691564 631.046212,317.964982 629.456829,315.146313 Z M651.58712,331.37433 C653.706689,323.460953 652.811547,314.741161 648.391046,307.084628 C642.481721,296.849377 631.776794,291.117929 620.75442,291.07314 C620.716139,291.140054 620.680734,291.208287 620.64296,291.275581 C620.745953,291.55788 620.84682,291.840828 620.952989,292.121967 C621.585543,293.796753 622.267591,295.451523 622.991457,297.085803 C624.318217,300.070232 625.769964,302.994714 627.334437,305.850169 C628.899478,308.710105 630.572826,311.485201 632.379512,314.172351 C634.184475,316.853187 636.13548,319.437109 638.184183,321.937796 C642.287361,326.934682 646.776127,331.61144 651.560639,335.904545 C656.023643,339.888902 660.740365,343.555028 665.762032,346.561685 L668.170746,342.45096 C663.053141,339.860302 658.240483,336.742398 653.711449,333.127925 C652.994567,332.556343 652.288323,331.968715 651.58712,331.37433 Z" id="Fill-1-Copy-3" sketch:type="MSShapeGroup"></path>
        </g>
    </g>
</svg>