<svg version="1.1" xmlns:sketch="http://www.bohemiancoding.com/sketch/ns"
	 xmlns="http://www.w3.org/2000/svg" xmlns:xlink="http://www.w3.org/1999/xlink" x="0px" y="0px" width="1407px" height="580px"
	 viewBox="-65.5 -28.5 1407 580" enable-background="new -65.5 -28.5 1407 580" xml:space="preserve">
<g id="page-2" sketch:type="MSPage">
	<g id="Desktop_x40_2x-Copy-2" transform="translate(0.000000, -107.000000)" sketch:type="MSArtboardGroup">

			<g id="bg-leaves-row-_x28_1_x29_-_x2B_-bg-leaves-row-_x28_1_x29_-copy" transform="translate(-338.000000, 106.000000)" sketch:type="MSLayerGroup">
			<g id="bg-leaves-row-_x28_1_x29_" transform="translate(359.000000, 0.000000)" sketch:type="MSShapeGroup">
				<g id="Artboard-4_1_">
					<g id="Page-1">
						<g id="Artboard-4">
							<path id="Fill-1-Copy-3" fill="#FFFFFF" fill-opacity="0.03" d="M356.139,149.73c-4.023-16.973-6.8-34.157-8.273-51.449
								c-0.744-8.872-1.137-17.775-1.049-26.684c0.104-8.892,0.737-17.776,1.686-26.557c0.954-8.794,2.262-17.532,3.935-26.19
								c1.026-5.266,2.208-10.5,3.562-15.682c-24.125,14.771-40.392,41.146-41.03,71.396c-11.902-5.494-24.619-7.207-36.255-4.943
								c-3.619,19.725,3.16,42.479,19.699,59.512c16.378,16.868,38.199,23.861,57.22,20.377c-0.161-0.105-0.311-0.231-0.446-0.381
								C355.506,149.33,355.82,149.535,356.139,149.73L356.139,149.73z M442.089,69.622c-13.596-2.728-28.714,0.308-42.134,8.802
								c-0.007-32.534-16.611-60.93-41.298-76.209c-0.173,0.107-0.341,0.221-0.513,0.329c-0.135,0.815-0.275,1.628-0.401,2.445
								c-0.751,4.864-1.365,9.749-1.858,14.642c-0.89,8.943-1.421,17.915-1.61,26.877c-0.193,8.974-0.034,17.895,0.539,26.789
								c0.578,8.877,1.609,17.724,2.967,26.508c2.736,17.563,6.752,34.895,11.93,51.718c4.855,15.645,10.694,30.88,18.071,44.962
								l10.739-6.486c-7.682-12.488-14.127-25.733-19.441-39.678c15.295-0.612,31.271-7.766,43.91-21.188
								C439.026,112.101,445.6,89.348,442.089,69.622L442.089,69.622z M1198.959,145.608c5.285-16.623,11.745-32.784,19.379-48.366
								c3.927-7.989,8.171-15.822,12.83-23.413c4.664-7.568,9.778-14.857,15.109-21.895c5.342-7.046,10.96-13.862,16.848-20.42
								c3.589-3.985,7.295-7.862,11.122-11.606c-28.279,0.223-55.792,14.444-71.903,40.045
								c-7.375-10.846-17.394-18.871-28.533-22.929c-13.251,15.042-19.147,38.041-13.734,61.169
								c5.36,22.902,20.466,40.147,38.563,46.968c-0.084-0.173-0.148-0.358-0.186-0.556
								C1198.623,144.938,1198.786,145.276,1198.959,145.608L1198.959,145.608z M1313.848,121.255
								c-10.251-9.348-24.771-14.54-40.645-14.178c16.733-27.891,17.11-60.792,3.81-86.616c-0.203,0.002-0.406,0.013-0.609,0.018
								c-0.535,0.629-1.074,1.254-1.602,1.889c-3.146,3.782-6.186,7.653-9.126,11.593c-5.364,7.207-10.435,14.623-15.208,22.208
								c-4.783,7.593-9.236,15.321-13.321,23.241c-4.072,7.907-7.74,16.022-11.095,24.251
								c-6.692,16.465-12.165,33.392-16.383,50.482c-3.888,15.913-6.721,31.983-7.643,47.857l12.542-0.023
								c-0.159-14.665,1.13-29.341,3.751-44.034c13.426,7.361,30.8,9.466,48.54,4.477
								C1289.368,156.088,1306.709,139.973,1313.848,121.255L1313.848,121.255z M691.777,61.464
								c6.725-15.127,16.204-29.349,28.653-41.216c-14.668,8.946-27.612,21.323-38.094,35.674
								c-10.525,14.354-18.698,30.537-24.984,47.369c-0.053,0.143-0.102,0.288-0.154,0.432c-0.278-1.603-0.553-3.208-0.792-4.821
								c-2.42-16.209-2.848-32.918-0.94-49.666c1.601-14.183,4.917-28.372,9.847-42.201c-4.378,10.079-7.997,20.467-10.827,31.048
								c-4.613,17.258-7.158,35.004-7.85,52.777c-0.549,14.017,0.057,28.051,1.659,41.951c0.43,3.729,0.917,7.45,1.49,11.156
								c1.36,8.761,3.112,17.454,5.269,26.027c1.08,4.286,2.259,8.542,3.551,12.751c0.762,2.469,1.574,4.959,2.424,7.392h13.49h1.67
								h3.275c-0.411-2.689-0.798-5.391-1.133-8.109c-0.992-8.028-1.672-16.145-2.027-24.286
								c-0.699-16.282-0.123-32.691,2.226-48.899C680.883,92.648,685.026,76.614,691.777,61.464L691.777,61.464z M652.104,37.386
								C656.208,24.456,661.47,11.92,667.824,0c-10.105,13.97-18.547,29.503-24.797,46.184
								c-6.329,16.838-10.422,34.798-12.232,53.156c-0.998,10.068-1.303,20.247-0.999,30.455
								c-10.923-8.415-23.017-14.959-35.545-19.282c-12.779-4.436-25.936-6.602-38.852-6.994
								c12.306,3.978,23.846,9.588,33.924,16.746c10.094,7.141,18.687,15.792,25.591,25.379
								c6.909,9.593,12.174,20.102,15.939,30.988c1.541,4.454,2.819,8.976,3.855,13.507h4.116h0.598h11.542
								c-0.452-1.616-0.89-3.232-1.314-4.865c-1.141-4.433-2.155-8.885-3.064-13.353c-1.152-5.669-2.112-11.369-2.923-17.086
								c-0.469-3.294-0.9-6.591-1.259-9.896c-0.165-1.526-0.3-3.055-0.441-4.583c-1.53-16.576-1.694-33.262-0.28-49.805
								C643.22,72.488,646.641,54.599,652.104,37.386L652.104,37.386z M1468.348,61.533c-6.725-15.127-16.204-29.349-28.653-41.216
								c14.668,8.946,27.612,21.323,38.094,35.674c10.525,14.354,18.698,30.537,24.984,47.369c0.053,0.143,0.102,0.288,0.154,0.432
								c0.278-1.603,0.553-3.208,0.792-4.821c2.42-16.209,2.848-32.918,0.94-49.666c-1.601-14.183-4.917-28.372-9.847-42.201
								c4.378,10.079,7.997,20.467,10.827,31.048c4.613,17.258,7.158,35.004,7.85,52.777c0.549,14.017-0.057,28.051-1.659,41.951
								c-0.43,3.729-0.917,7.45-1.49,11.156c-1.36,8.761-3.112,17.454-5.269,26.027c-1.08,4.286-2.259,8.542-3.551,12.751
								c-0.762,2.469-1.574,4.959-2.424,7.392h-13.49h-1.67h-3.275c0.411-2.689,0.798-5.391,1.133-8.109
								c0.992-8.028,1.672-16.145,2.027-24.286c0.699-16.282,0.123-32.691-2.225-48.899
								C1479.241,92.717,1475.098,76.683,1468.348,61.533L1468.348,61.533z M1508.02,37.454
								c-4.103-12.929-9.365-25.465-15.72-37.386c10.105,13.97,18.547,29.503,24.797,46.184
								c6.329,16.838,10.422,34.798,12.232,53.156c0.998,10.068,1.303,20.247,0.999,30.455
								c10.923-8.415,23.017-14.959,35.545-19.282c12.779-4.436,25.935-6.602,38.851-6.994
								c-12.306,3.978-23.846,9.588-33.924,16.746c-10.094,7.141-18.687,15.792-25.591,25.379
								c-6.909,9.593-12.174,20.102-15.939,30.988c-1.541,4.454-2.819,8.976-3.855,13.507h-4.116h-0.598h-11.542
								c0.452-1.616,0.89-3.232,1.314-4.865c1.141-4.433,2.155-8.885,3.064-13.353c1.152-5.669,2.112-11.369,2.923-17.086
								c0.469-3.294,0.901-6.591,1.259-9.895c0.165-1.526,0.3-3.055,0.441-4.583c1.53-16.576,1.694-33.262,0.28-49.805
								C1516.904,72.557,1513.483,54.668,1508.02,37.454L1508.02,37.454z M74.685,66.495c7.467-5.905,15.294-11.351,23.253-16.458
								c7.975-5.111,16.149-9.879,24.508-14.281c5.09-2.671,10.263-5.186,15.511-7.518c-29.6-10.94-63.579-6.736-89.376,14.176
								c-25.845,20.95-37.01,53.431-32.408,84.743c11.326-14.89,23.69-28.855,37.048-41.774
								C60.085,78.763,67.216,72.425,74.685,66.495L74.685,66.495z M37.662,138.448c24.005,2.523,48.967-4.107,69.21-20.517
								c27.061-21.936,38.805-55.764,33.856-87.894c-0.212-0.081-0.427-0.152-0.64-0.231c-0.774,0.43-1.551,0.855-2.32,1.294
								c-4.582,2.615-9.083,5.366-13.505,8.228c-8.073,5.242-15.914,10.82-23.503,16.695c-7.601,5.879-14.905,12.033-21.892,18.536
								c-6.969,6.495-13.589,13.37-19.922,20.492c-12.65,14.258-24.19,29.492-34.478,45.41C14.929,155.3,6.435,170.732,0,186.747
								l13.072,5.12c5.18-16.103,12.035-31.561,20.466-46.422C34.871,143.094,36.255,140.765,37.662,138.448L37.662,138.448z
								 M892.395,96.793c-4.908-8.752-9.28-17.804-13.277-26.938c-3.999-9.151-7.609-18.453-10.807-27.887
								c-1.938-5.743-3.699-11.547-5.26-17.399c-16.252,29.034-17.483,65.127,0.006,95.449
								c17.521,30.378,49.448,47.365,82.759,47.731c-13.613-14.254-26.093-29.437-37.323-45.483
								C902.743,114.026,897.329,105.553,892.395,96.793L892.395,96.793z M961.097,147.225c6.58-24.592,3.801-51.691-9.922-75.485
								c-18.345-31.808-51.578-49.62-85.797-49.759c-0.119,0.208-0.229,0.42-0.346,0.629c0.32,0.877,0.633,1.757,0.962,2.63
								c1.964,5.205,4.081,10.347,6.328,15.426c4.119,9.275,8.626,18.363,13.483,27.237c4.859,8.888,10.053,17.512,15.662,25.863
								c5.603,8.331,11.66,16.361,18.02,24.133c12.738,15.529,26.673,30.063,41.527,43.404
								c13.855,12.382,28.498,23.775,44.087,33.119l7.478-12.775c-15.887-8.051-30.828-17.74-44.888-28.973
								C965.467,150.898,963.274,149.072,961.097,147.225L961.097,147.225z"/>
						</g>
					</g>
				</g>
			</g>
			<g id="bg-leaves-row-_x28_1_x29_-copy" transform="translate(0.000000, 315.000000)" sketch:type="MSShapeGroup">
				<g id="Artboard-4_3_">
					<g id="Page-1_1_">
						<g id="Artboard-4_2_">
							<path id="Fill-1-Copy-3_1_" fill="#FFFFFF" fill-opacity="0.03" d="M356.139,149.73c-4.023-16.973-6.8-34.157-8.273-51.449
								c-0.744-8.872-1.137-17.775-1.049-26.684c0.104-8.892,0.737-17.776,1.686-26.557c0.954-8.794,2.262-17.532,3.935-26.19
								c1.026-5.266,2.208-10.5,3.562-15.682c-24.125,14.771-40.392,41.146-41.03,71.396c-11.902-5.494-24.619-7.207-36.255-4.943
								c-3.619,19.725,3.16,42.479,19.699,59.512c16.378,16.868,38.199,23.861,57.22,20.377c-0.161-0.105-0.311-0.231-0.446-0.381
								C355.506,149.33,355.82,149.535,356.139,149.73L356.139,149.73z M442.089,69.622c-13.596-2.728-28.714,0.308-42.134,8.802
								c-0.007-32.534-16.611-60.93-41.298-76.209c-0.173,0.107-0.341,0.221-0.513,0.329c-0.135,0.815-0.275,1.628-0.401,2.445
								c-0.751,4.864-1.365,9.749-1.858,14.642c-0.89,8.943-1.421,17.915-1.61,26.877c-0.193,8.974-0.034,17.895,0.539,26.789
								c0.578,8.877,1.609,17.724,2.967,26.508c2.736,17.563,6.752,34.895,11.93,51.718c4.855,15.645,10.694,30.88,18.071,44.962
								l10.739-6.486c-7.682-12.488-14.127-25.733-19.441-39.678c15.295-0.612,31.271-7.766,43.91-21.188
								C439.026,112.101,445.6,89.348,442.089,69.622L442.089,69.622z M1198.959,145.608c5.285-16.623,11.745-32.784,19.379-48.366
								c3.927-7.989,8.171-15.822,12.83-23.413c4.664-7.568,9.778-14.857,15.109-21.895c5.342-7.046,10.96-13.862,16.848-20.42
								c3.589-3.985,7.295-7.862,11.122-11.606c-28.279,0.223-55.792,14.444-71.903,40.045
								c-7.375-10.846-17.394-18.871-28.533-22.929c-13.251,15.042-19.147,38.041-13.734,61.169
								c5.36,22.902,20.466,40.147,38.563,46.968c-0.084-0.173-0.148-0.358-0.186-0.556
								C1198.623,144.938,1198.786,145.276,1198.959,145.608L1198.959,145.608z M1313.848,121.255
								c-10.251-9.348-24.771-14.54-40.645-14.178c16.733-27.891,17.11-60.792,3.81-86.616c-0.203,0.002-0.406,0.013-0.609,0.018
								c-0.535,0.629-1.074,1.254-1.602,1.889c-3.146,3.782-6.186,7.653-9.126,11.593c-5.364,7.207-10.435,14.623-15.208,22.208
								c-4.783,7.593-9.236,15.321-13.321,23.241c-4.072,7.907-7.74,16.022-11.095,24.251
								c-6.692,16.465-12.165,33.392-16.383,50.482c-3.888,15.913-6.721,31.983-7.643,47.857l12.542-0.023
								c-0.159-14.665,1.13-29.341,3.751-44.034c13.426,7.361,30.8,9.466,48.54,4.477
								C1289.368,156.088,1306.709,139.973,1313.848,121.255L1313.848,121.255z M691.777,61.464
								c6.725-15.127,16.204-29.349,28.653-41.216c-14.668,8.946-27.612,21.323-38.094,35.674
								c-10.525,14.354-18.698,30.537-24.984,47.369c-0.053,0.143-0.102,0.288-0.154,0.432c-0.278-1.603-0.553-3.208-0.792-4.821
								c-2.42-16.209-2.848-32.918-0.94-49.666c1.601-14.183,4.917-28.372,9.847-42.201c-4.378,10.079-7.997,20.467-10.827,31.048
								c-4.613,17.258-7.158,35.004-7.85,52.777c-0.549,14.017,0.057,28.051,1.659,41.951c0.43,3.729,0.917,7.45,1.49,11.156
								c1.36,8.761,3.112,17.454,5.269,26.027c1.08,4.286,2.259,8.542,3.551,12.751c0.762,2.469,1.574,4.959,2.424,7.392h13.49h1.67
								h3.275c-0.411-2.689-0.798-5.391-1.133-8.109c-0.992-8.028-1.672-16.145-2.027-24.286
								c-0.699-16.282-0.123-32.691,2.226-48.899C680.883,92.648,685.026,76.614,691.777,61.464L691.777,61.464z M652.104,37.386
								C656.208,24.456,661.47,11.92,667.824,0c-10.105,13.97-18.547,29.503-24.797,46.184
								c-6.329,16.838-10.422,34.798-12.232,53.156c-0.998,10.068-1.303,20.247-0.999,30.455
								c-10.923-8.415-23.017-14.959-35.545-19.282c-12.779-4.436-25.936-6.602-38.852-6.994
								c12.306,3.978,23.846,9.588,33.924,16.746c10.094,7.141,18.687,15.792,25.591,25.379
								c6.909,9.593,12.174,20.102,15.939,30.988c1.541,4.454,2.819,8.976,3.855,13.507h4.116h0.598h11.542
								c-0.452-1.616-0.89-3.232-1.314-4.865c-1.141-4.433-2.155-8.885-3.064-13.353c-1.152-5.669-2.112-11.369-2.923-17.086
								c-0.469-3.294-0.9-6.591-1.259-9.896c-0.165-1.526-0.3-3.055-0.441-4.583c-1.53-16.576-1.694-33.262-0.28-49.805
								C643.22,72.488,646.641,54.599,652.104,37.386L652.104,37.386z M1468.348,61.533c-6.725-15.127-16.204-29.349-28.653-41.216
								c14.668,8.946,27.612,21.323,38.094,35.674c10.525,14.354,18.698,30.537,24.984,47.369c0.053,0.143,0.102,0.288,0.154,0.432
								c0.278-1.603,0.553-3.208,0.792-4.821c2.42-16.209,2.848-32.918,0.94-49.666c-1.601-14.183-4.917-28.372-9.847-42.201
								c4.378,10.079,7.997,20.467,10.827,31.048c4.613,17.258,7.158,35.004,7.85,52.777c0.549,14.017-0.057,28.051-1.659,41.951
								c-0.43,3.729-0.917,7.45-1.49,11.156c-1.36,8.761-3.112,17.454-5.269,26.027c-1.08,4.286-2.259,8.542-3.551,12.751
								c-0.762,2.469-1.574,4.959-2.424,7.392h-13.49h-1.67h-3.275c0.411-2.689,0.798-5.391,1.133-8.109
								c0.992-8.028,1.672-16.145,2.027-24.286c0.699-16.282,0.123-32.691-2.225-48.899
								C1479.241,92.717,1475.098,76.683,1468.348,61.533L1468.348,61.533z M1508.02,37.454
								c-4.103-12.929-9.365-25.465-15.72-37.386c10.105,13.97,18.547,29.503,24.797,46.184
								c6.329,16.838,10.422,34.798,12.232,53.156c0.998,10.068,1.303,20.247,0.999,30.455
								c10.923-8.415,23.017-14.959,35.545-19.282c12.779-4.436,25.935-6.602,38.851-6.994
								c-12.306,3.978-23.846,9.588-33.924,16.746c-10.094,7.141-18.687,15.792-25.591,25.379
								c-6.909,9.593-12.174,20.102-15.939,30.988c-1.541,4.454-2.819,8.976-3.855,13.507h-4.116h-0.598h-11.542
								c0.452-1.616,0.89-3.232,1.314-4.865c1.141-4.433,2.155-8.885,3.064-13.353c1.152-5.669,2.112-11.369,2.923-17.086
								c0.469-3.294,0.901-6.591,1.259-9.895c0.165-1.526,0.3-3.055,0.441-4.583c1.53-16.576,1.694-33.262,0.28-49.805
								C1516.904,72.557,1513.483,54.668,1508.02,37.454L1508.02,37.454z M74.685,66.495c7.467-5.905,15.294-11.351,23.253-16.458
								c7.975-5.111,16.149-9.879,24.508-14.281c5.09-2.671,10.263-5.186,15.511-7.518c-29.6-10.94-63.579-6.736-89.376,14.176
								c-25.845,20.95-37.01,53.431-32.408,84.743c11.326-14.89,23.69-28.855,37.048-41.774
								C60.085,78.763,67.216,72.425,74.685,66.495L74.685,66.495z M37.662,138.448c24.005,2.523,48.967-4.107,69.21-20.517
								c27.061-21.936,38.805-55.764,33.856-87.894c-0.212-0.081-0.427-0.152-0.64-0.231c-0.774,0.43-1.551,0.855-2.32,1.294
								c-4.582,2.615-9.083,5.366-13.505,8.228c-8.073,5.242-15.914,10.82-23.503,16.695c-7.601,5.879-14.905,12.033-21.892,18.536
								c-6.969,6.495-13.589,13.37-19.922,20.492c-12.65,14.258-24.19,29.492-34.478,45.41C14.929,155.3,6.435,170.732,0,186.747
								l13.072,5.12c5.18-16.103,12.035-31.561,20.466-46.422C34.871,143.094,36.255,140.765,37.662,138.448L37.662,138.448z
								 M892.395,96.793c-4.908-8.752-9.28-17.804-13.277-26.938c-3.999-9.151-7.609-18.453-10.807-27.887
								c-1.938-5.743-3.699-11.547-5.26-17.399c-16.252,29.034-17.483,65.127,0.006,95.449
								c17.521,30.378,49.448,47.365,82.759,47.731c-13.613-14.254-26.093-29.437-37.323-45.483
								C902.743,114.026,897.329,105.553,892.395,96.793L892.395,96.793z M961.097,147.225c6.58-24.592,3.801-51.691-9.922-75.485
								c-18.345-31.808-51.578-49.62-85.797-49.759c-0.119,0.208-0.229,0.42-0.346,0.629c0.32,0.877,0.633,1.757,0.962,2.63
								c1.964,5.205,4.081,10.347,6.328,15.426c4.119,9.275,8.626,18.363,13.483,27.237c4.859,8.888,10.053,17.512,15.662,25.863
								c5.603,8.331,11.66,16.361,18.02,24.133c12.738,15.529,26.673,30.063,41.527,43.404
								c13.855,12.382,28.498,23.775,44.087,33.119l7.478-12.775c-15.887-8.051-30.828-17.74-44.888-28.973
								C965.467,150.898,963.274,149.072,961.097,147.225L961.097,147.225z"/>
						</g>
					</g>
				</g>
			</g>
		</g>
	</g>
</g>
</svg>
